<?xml version="1.0" encoding="UTF-8" standalone="no"?>
<!-- Uploaded to: SVG Repo, www.svgrepo.com, Generator: SVG Repo Mixer Tools -->

<svg
   width="666.66669"
   height="666.66669"
   viewBox="0 0 426.66668 426.66668"
   version="1.1"
   id="svg7"
   sodipodi:docname="error.svg"
   inkscape:version="1.1.2 (0a00cf5339, 2022-02-04)"
   inkscape:export-filename="/home/dfranco/Documents/0.thesis/BiaPy_GUI/images/bn_images/error.png"
   inkscape:export-xdpi="100"
   inkscape:export-ydpi="100"
   xmlns:inkscape="http://www.inkscape.org/namespaces/inkscape"
   xmlns:sodipodi="http://sodipodi.sourceforge.net/DTD/sodipodi-0.dtd"
   xmlns="http://www.w3.org/2000/svg"
   xmlns:svg="http://www.w3.org/2000/svg"
   xmlns:rdf="http://www.w3.org/1999/02/22-rdf-syntax-ns#"
   xmlns:cc="http://creativecommons.org/ns#"
   xmlns:dc="http://purl.org/dc/elements/1.1/">
  <defs
     id="defs11" />
  <sodipodi:namedview
     id="namedview9"
     pagecolor="#ffffff"
     bordercolor="#666666"
     borderopacity="1.0"
     inkscape:pageshadow="2"
     inkscape:pageopacity="0.0"
     inkscape:pagecheckerboard="0"
     showgrid="false"
     inkscape:zoom="0.89875"
     inkscape:cx="333.24061"
     inkscape:cy="332.68428"
     inkscape:window-width="1846"
     inkscape:window-height="1163"
     inkscape:window-x="0"
     inkscape:window-y="0"
     inkscape:window-maximized="1"
     inkscape:current-layer="add" />
  <title
     id="title2">error</title>
  <g
     id="Page-1"
     stroke="none"
     stroke-width="1"
     fill="none"
     fill-rule="evenodd"
     transform="translate(-42.666667,-42.666667)">
    <g
       id="add"
       fill="#000000"
       transform="translate(42.666667,42.666667)">
      <path
         d="M 213.33333,0 C 331.136,0 426.66667,95.530667 426.66667,213.33333 426.66667,331.136 331.136,426.66667 213.33333,426.66667 95.530667,426.66667 0,331.136 0,213.33333 0,95.530667 95.530667,0 213.33333,0 Z m 0,42.666667 C 119.232,42.666667 42.666667,119.232 42.666667,213.33333 42.666667,307.43467 119.232,384 213.33333,384 307.43467,384 384,307.43467 384,213.33333 384,119.232 307.43467,42.666667 213.33333,42.666667 Z M 262.25067,134.25067 292.416,164.416 243.49867,213.33333 292.416,262.25067 262.25067,292.416 213.33333,243.49867 164.416,292.416 134.25067,262.25067 183.168,213.33333 134.25067,164.416 164.416,134.25067 213.33333,183.168 Z"
         id="error"
         style="fill:#ff4c50;fill-opacity:1" />
    </g>
  </g>
  <metadata
     id="metadata828">
    <rdf:RDF>
      <cc:Work
         rdf:about="">
        <dc:title>error</dc:title>
      </cc:Work>
    </rdf:RDF>
  </metadata>
</svg>
