<?xml version="1.0" encoding="UTF-8" standalone="no"?>
<svg
   xmlns:dc="http://purl.org/dc/elements/1.1/"
   xmlns:cc="http://creativecommons.org/ns#"
   xmlns:rdf="http://www.w3.org/1999/02/22-rdf-syntax-ns#"
   xmlns:svg="http://www.w3.org/2000/svg"
   xmlns="http://www.w3.org/2000/svg"
   xmlns:sodipodi="http://sodipodi.sourceforge.net/DTD/sodipodi-0.dtd"
   xmlns:inkscape="http://www.inkscape.org/namespaces/inkscape"
   width="695"
   height="695"
   viewBox="0 0 444.8 444.8"
   version="1.1"
   id="svg7"
   sodipodi:docname="error.svg"
   inkscape:version="1.0.2-2 (e86c870879, 2021-01-15)"
   inkscape:export-filename="/home/dfranco/Documents/0.thesis/BiaPy_GUI/images/bn_images/error.png"
   inkscape:export-xdpi="100"
   inkscape:export-ydpi="100">
  <defs
     id="defs11" />
  <sodipodi:namedview
     id="namedview9"
     pagecolor="#ffffff"
     bordercolor="#666666"
     borderopacity="1.0"
     inkscape:pageshadow="2"
     inkscape:pageopacity="0.0"
     inkscape:pagecheckerboard="0"
     showgrid="false"
     inkscape:zoom="0.63551222"
     inkscape:cx="494.77814"
     inkscape:cy="487.99996"
     inkscape:window-width="1920"
     inkscape:window-height="1017"
     inkscape:window-x="1912"
     inkscape:window-y="-8"
     inkscape:window-maximized="1"
     inkscape:current-layer="add"
     inkscape:document-rotation="0" />
  <title
     id="title2">error</title>
  <g
     id="Page-1"
     stroke="none"
     stroke-width="1"
     fill="none"
     fill-rule="evenodd"
     transform="translate(-42.666667,-42.666667)">
    <g
       id="add"
       fill="#000000"
       transform="translate(42.666667,42.666667)">
      <path
         d="m 226.13333,12.8 c 117.80267,0 213.33334,95.53067 213.33334,213.33333 0,117.80267 -95.53067,213.33334 -213.33334,213.33334 C 108.33067,439.46667 12.8,343.936 12.8,226.13333 12.8,108.33067 108.33067,12.8 226.13333,12.8 Z m 0,42.666667 C 132.032,55.466667 55.466667,132.032 55.466667,226.13333 55.466667,320.23467 132.032,396.8 226.13333,396.8 320.23467,396.8 396.8,320.23467 396.8,226.13333 396.8,132.032 320.23467,55.466667 226.13333,55.466667 Z M 275.05067,147.05067 305.216,177.216 256.29867,226.13333 305.216,275.05067 275.05067,305.216 226.13333,256.29867 177.216,305.216 147.05067,275.05067 195.968,226.13333 147.05067,177.216 177.216,147.05067 226.13333,195.968 Z"
         id="error"
         style="fill:#ff4c50;fill-opacity:1" />
    </g>
  </g>
  <metadata
     id="metadata828">
    <rdf:RDF>
      <cc:Work
         rdf:about="">
        <dc:title>error</dc:title>
        <dc:format>image/svg+xml</dc:format>
        <dc:type
           rdf:resource="http://purl.org/dc/dcmitype/StillImage" />
      </cc:Work>
    </rdf:RDF>
  </metadata>
</svg>
