<?xml version="1.0" encoding="UTF-8" standalone="no"?>
<svg
   width="800"
   height="800"
   viewBox="0 0 512 512"
   version="1.1"
   id="svg7"
   sodipodi:docname="error.svg"
   inkscape:version="1.1.2 (0a00cf5339, 2022-02-04)"
   inkscape:export-filename="/home/dfranco/Documents/0.thesis/BiaPy-GUI-arg4/images/bn_images/error.png"
   inkscape:export-xdpi="9.6000004"
   inkscape:export-ydpi="9.6000004"
   xmlns:inkscape="http://www.inkscape.org/namespaces/inkscape"
   xmlns:sodipodi="http://sodipodi.sourceforge.net/DTD/sodipodi-0.dtd"
   xmlns="http://www.w3.org/2000/svg"
   xmlns:svg="http://www.w3.org/2000/svg"
   xmlns:rdf="http://www.w3.org/1999/02/22-rdf-syntax-ns#"
   xmlns:cc="http://creativecommons.org/ns#"
   xmlns:dc="http://purl.org/dc/elements/1.1/">
  <defs
     id="defs11" />
  <sodipodi:namedview
     id="namedview9"
     pagecolor="#ffffff"
     bordercolor="#666666"
     borderopacity="1.0"
     inkscape:pageshadow="2"
     inkscape:pageopacity="0.0"
     inkscape:pagecheckerboard="0"
     showgrid="false"
     inkscape:zoom="0.31775611"
     inkscape:cx="388.66286"
     inkscape:cy="800.92874"
     inkscape:window-width="1846"
     inkscape:window-height="1136"
     inkscape:window-x="0"
     inkscape:window-y="0"
     inkscape:window-maximized="1"
     inkscape:current-layer="add"
     inkscape:document-rotation="0" />
  <title
     id="title2">error</title>
  <g
     id="Page-1"
     stroke="none"
     stroke-width="1"
     fill="none"
     fill-rule="evenodd"
     transform="translate(-42.666667,-42.666667)">
    <g
       id="add"
       fill="#000000"
       transform="translate(42.666667,42.666667)">
      <path
         d="m 256.00021,42.66688 c 117.80267,0 213.33334,95.53067 213.33334,213.33333 0,117.80267 -95.53067,213.33334 -213.33334,213.33334 -117.80266,0 -213.33333,-95.53067 -213.33333,-213.33334 0,-117.80266 95.53067,-213.33333 213.33333,-213.33333 z m 0,42.666667 c -94.10133,0 -170.666663,76.565333 -170.666663,170.666663 0,94.10134 76.565333,170.66667 170.666663,170.66667 94.10134,0 170.66667,-76.56533 170.66667,-170.66667 0,-94.10133 -76.56533,-170.666663 -170.66667,-170.666663 z m 48.91734,91.584003 30.16533,30.16533 -48.91733,48.91733 48.91733,48.91734 -30.16533,30.16533 -48.91734,-48.91733 -48.91733,48.91733 -30.16533,-30.16533 48.91733,-48.91734 -48.91733,-48.91733 30.16533,-30.16533 48.91733,48.91733 z"
         id="error"
         style="fill:#ff4c50;fill-opacity:1" />
    </g>
  </g>
  <metadata
     id="metadata828">
    <rdf:RDF>
      <cc:Work
         rdf:about="">
        <dc:title>error</dc:title>
        <dc:format>image/svg+xml</dc:format>
        <dc:type
           rdf:resource="http://purl.org/dc/dcmitype/StillImage" />
      </cc:Work>
    </rdf:RDF>
  </metadata>
</svg>
