<?xml version="1.0" encoding="UTF-8" standalone="no"?>
<svg
   xmlns:dc="http://purl.org/dc/elements/1.1/"
   xmlns:cc="http://creativecommons.org/ns#"
   xmlns:rdf="http://www.w3.org/1999/02/22-rdf-syntax-ns#"
   xmlns:svg="http://www.w3.org/2000/svg"
   xmlns="http://www.w3.org/2000/svg"
   xmlns:sodipodi="http://sodipodi.sourceforge.net/DTD/sodipodi-0.dtd"
   xmlns:inkscape="http://www.inkscape.org/namespaces/inkscape"
   width="28.924271mm"
   height="27.21612mm"
   viewBox="0 0 28.924271 27.21612"
   version="1.1"
   id="svg8"
   inkscape:version="1.0.2-2 (e86c870879, 2021-01-15)"
   sodipodi:docname="forum_icon.svg">
  <defs
     id="defs2" />
  <sodipodi:namedview
     id="base"
     pagecolor="#ffffff"
     bordercolor="#666666"
     borderopacity="1.0"
     inkscape:pageopacity="0.0"
     inkscape:pageshadow="2"
     inkscape:zoom="2.8"
     inkscape:cx="17.091474"
     inkscape:cy="66.69916"
     inkscape:document-units="mm"
     inkscape:current-layer="layer1"
     inkscape:document-rotation="0"
     showgrid="false"
     inkscape:window-width="1920"
     inkscape:window-height="1017"
     inkscape:window-x="1912"
     inkscape:window-y="-8"
     inkscape:window-maximized="1" />
  <metadata
     id="metadata5">
    <rdf:RDF>
      <cc:Work
         rdf:about="">
        <dc:format>image/svg+xml</dc:format>
        <dc:type
           rdf:resource="http://purl.org/dc/dcmitype/StillImage" />
        <dc:title></dc:title>
      </cc:Work>
    </rdf:RDF>
  </metadata>
  <g
     inkscape:label="Capa 1"
     inkscape:groupmode="layer"
     id="layer1"
     transform="translate(-11.606949,-140.77592)">
    <path
       style="fill:#000000;stroke-width:0.0846667"
       d="m 20.745783,167.90114 c -0.245883,-0.0981 -0.566339,-0.3819 -0.70508,-0.62455 -0.05325,-0.0931 -0.116429,-0.59421 -0.140392,-1.1135 l -0.04357,-0.94418 -0.719666,0.42809 c -0.83872,0.4989 -1.315601,0.59343 -1.810085,0.35878 -0.170454,-0.0809 -0.380259,-0.24714 -0.466232,-0.36946 -0.163344,-0.2324 -4.79014,-8.23374 -5.034281,-8.70603 -0.28491,-0.55115 -0.116517,-1.28398 0.380114,-1.65421 0.156282,-0.11651 0.521823,-0.3406 0.812312,-0.49799 0.290489,-0.15739 0.528363,-0.30522 0.528608,-0.3285 2.46e-4,-0.0233 -0.320699,-0.22442 -0.71321,-0.44696 -0.39251,-0.22255 -0.809843,-0.51895 -0.927406,-0.65866 -0.235546,-0.27993 -0.35014,-0.72261 -0.27906,-1.07802 0.05931,-0.29653 5.002102,-8.87426 5.292269,-9.18421 0.253296,-0.27056 0.780604,-0.43832 1.147255,-0.36499 0.139564,0.0279 0.545468,0.22177 0.902009,0.43079 0.356541,0.20903 0.669268,0.38005 0.694948,0.38005 0.02568,0 0.06219,-0.40957 0.08112,-0.91017 0.03864,-1.02154 0.148665,-1.32465 0.596858,-1.64432 l 0.276444,-0.19718 h 5.376334 5.376333 l 0.276445,0.19718 c 0.441311,0.31477 0.557232,0.626 0.596683,1.60199 0.01929,0.47731 0.05559,0.86783 0.08066,0.86783 0.02507,0 0.354101,-0.17795 0.731185,-0.39545 1.014726,-0.5853 1.609315,-0.5894 2.138558,-0.0148 0.357885,0.38859 5.213504,8.91033 5.255899,9.22425 0.02683,0.19865 -0.01814,0.43917 -0.128946,0.68966 -0.148767,0.33632 -0.266697,0.44158 -0.938789,0.83797 -0.422757,0.24933 -0.7693,0.47238 -0.770096,0.49567 -7.62e-4,0.0233 0.35072,0.25188 0.781146,0.508 0.654531,0.38946 0.814551,0.52801 0.977887,0.84666 0.147532,0.28782 0.183017,0.46182 0.145095,0.71145 -0.03338,0.21973 -0.902898,1.8084 -2.595067,4.74134 -1.399679,2.42598 -2.603113,4.47619 -2.674298,4.556 -0.204949,0.22981 -0.826186,0.43247 -1.142204,0.37262 -0.153351,-0.029 -0.602669,-0.23842 -0.998486,-0.46528 l -0.719667,-0.41247 -0.04233,1.02667 c -0.04826,1.17043 -0.134422,1.3677 -0.725231,1.66044 -0.334073,0.16553 -0.496479,0.17041 -5.503333,0.1652 -3.216809,-0.003 -5.238774,-0.0371 -5.370727,-0.0897 z m 8.040786,-3.60393 c 0.174226,-0.22149 0.178442,-0.29312 0.154312,-2.62177 -0.02914,-2.81233 0.01812,-2.67148 -0.914079,-2.72415 -0.344955,-0.0195 -0.592395,4.2e-4 -0.592395,0.0477 0,0.0447 0.06166,0.20482 0.137034,0.3559 0.173623,0.34804 0.119466,1.03353 -0.105453,1.33478 -0.08877,0.1189 -1.046589,0.72947 -2.128489,1.35682 l -1.967092,1.14064 v 0.51404 c 0,0.86213 -0.128673,0.82371 2.758644,0.82371 h 2.478399 z m -7.815606,-3.678 c 1.063578,-0.61144 2.019502,-1.18958 2.124277,-1.28476 0.257619,-0.23401 0.239671,-0.50264 -0.06971,-1.04339 -0.143118,-0.25014 -0.27336,-0.4548 -0.289428,-0.4548 -0.01607,0 -0.109959,0.13064 -0.208646,0.29032 -0.236311,0.38236 -0.838798,0.67879 -1.245496,0.61279 -0.164748,-0.0267 -1.158945,-0.54568 -2.209325,-1.1532 -1.050381,-0.60752 -1.962223,-1.10458 -2.026317,-1.10458 -0.295455,0 -0.957242,0.55252 -0.957242,0.79919 0,0.22053 2.223473,4.09929 2.466081,4.30198 0.09754,0.0815 0.2459,0.14816 0.329688,0.14816 0.08379,0 1.022543,-0.50027 2.086121,-1.11171 z m 12.75601,0.78577 c 0.06758,-0.0769 0.622494,-1.00363 1.23315,-2.05952 1.236361,-2.13779 1.287716,-2.29992 0.835118,-2.63662 -0.338306,-0.25167 -3.632311,-2.15145 -3.920081,-2.26086 -0.31927,-0.12139 -0.597575,0.0561 -0.884198,0.564 -0.140005,0.24807 -0.254555,0.47067 -0.254555,0.49466 0,0.024 0.161925,0.0438 0.359834,0.0439 0.414708,3.4e-4 0.83026,0.22247 1.053733,0.56319 0.135404,0.20644 0.157578,0.50712 0.1951,2.64554 l 0.04233,2.41263 0.440832,0.2302 c 0.459587,0.23999 0.689572,0.24072 0.898734,0.003 z m -6.691599,-6.40131 c 0.172901,-0.30062 0.314367,-0.58805 0.314367,-0.63875 0,-0.0507 -0.141466,-0.33813 -0.314367,-0.63875 l -0.314367,-0.54658 h -0.649651 -0.649651 l -0.352096,0.59267 -0.352098,0.59266 0.352098,0.59267 0.352096,0.59267 h 0.649651 0.649651 z m -6.194301,-0.88043 c 0.07572,-0.0766 0.241262,-0.32029 0.367879,-0.54148 l 0.230212,-0.40217 H 21.06264 c -0.418462,0 -0.819255,-0.22312 -1.113448,-0.61985 -0.168305,-0.22697 -0.178408,-0.35799 -0.20304,-2.63303 l -0.02592,-2.39417 -0.428367,-0.22072 c -0.704067,-0.36278 -0.729746,-0.33823 -2.062622,1.97267 -0.631041,1.09408 -1.165141,2.06563 -1.186888,2.159 -0.08323,0.35735 0.182435,0.56365 2.241907,1.74099 2.136092,1.22114 2.240062,1.25932 2.556814,0.93876 z m 14.719838,-2.05535 c 0.356037,-0.21704 0.50313,-0.39805 0.50705,-0.62397 0.0032,-0.18292 -2.112435,-3.94047 -2.395408,-4.2545 -0.11154,-0.12378 -0.262868,-0.18802 -0.43207,-0.18342 -0.377326,0.0103 -4.189789,2.24201 -4.363833,2.55452 -0.123403,0.22157 -0.115419,0.26127 0.159415,0.79265 l 0.289326,0.5594 0.291318,-0.35071 c 0.356887,-0.42965 0.66972,-0.5996 1.10367,-0.5996 0.270498,0 0.693249,0.20848 2.311371,1.13989 1.089179,0.62694 2.037474,1.14114 2.107324,1.14268 0.06985,0.002 0.259676,-0.0781 0.421837,-0.17694 z m -10.880517,-2.42313 c -0.333762,-0.78751 -0.322606,-1.18601 0.04633,-1.65504 0.09373,-0.11915 1.046096,-0.72023 2.11638,-1.33573 l 1.94597,-1.11909 v -0.49565 c 0,-0.86096 0.08919,-0.83433 -2.794,-0.83433 -2.342445,0 -2.463119,0.008 -2.624667,0.16934 -0.161424,0.16142 -0.169333,0.28222 -0.169333,2.58618 v 2.41685 l 0.207818,0.20781 c 0.178994,0.179 0.285939,0.20782 0.771058,0.20782 0.503897,0 0.556624,-0.0156 0.500444,-0.14816 z"
       id="path847" />
  </g>
</svg>
