<?xml version="1.0" encoding="UTF-8" standalone="no"?>
<svg
   xmlns:dc="http://purl.org/dc/elements/1.1/"
   xmlns:cc="http://creativecommons.org/ns#"
   xmlns:rdf="http://www.w3.org/1999/02/22-rdf-syntax-ns#"
   xmlns:svg="http://www.w3.org/2000/svg"
   xmlns="http://www.w3.org/2000/svg"
   xmlns:sodipodi="http://sodipodi.sourceforge.net/DTD/sodipodi-0.dtd"
   xmlns:inkscape="http://www.inkscape.org/namespaces/inkscape"
   width="108.60215"
   height="105.92435"
   viewBox="0 0 108.60215 105.92435"
   version="1.1"
   id="svg4"
   sodipodi:docname="github_icon.svg"
   inkscape:version="1.0.2-2 (e86c870879, 2021-01-15)">
  <metadata
     id="metadata6">
    <rdf:RDF>
      <cc:Work
         rdf:about="">
        <dc:format>image/svg+xml</dc:format>
        <dc:type
           rdf:resource="http://purl.org/dc/dcmitype/StillImage" />
        <dc:title></dc:title>
      </cc:Work>
    </rdf:RDF>
  </metadata>
  <defs
     id="defs8" />
  <sodipodi:namedview
     id="namedview6"
     pagecolor="#ffffff"
     bordercolor="#666666"
     borderopacity="1.0"
     inkscape:pageshadow="2"
     inkscape:pageopacity="0.0"
     inkscape:pagecheckerboard="0"
     showgrid="false"
     inkscape:zoom="2.6479676"
     inkscape:cx="66.269057"
     inkscape:cy="63.484747"
     inkscape:window-width="1920"
     inkscape:window-height="1017"
     inkscape:window-x="1912"
     inkscape:window-y="-8"
     inkscape:window-maximized="1"
     inkscape:current-layer="svg4"
     inkscape:document-rotation="0" />
  <path
     d="M 54.301074,0 C 24.317831,0 0,24.313305 0,54.301074 c 0,23.992025 15.557258,44.345878 37.13741,51.527196 2.710529,0.50228 3.588397,-1.18105 3.588397,-2.61098 V 93.108243 C 25.621057,96.393457 22.47612,86.700715 22.47612,86.700715 c -2.470699,-6.276299 -6.031945,-7.946057 -6.031945,-7.946057 -4.927822,-3.371192 0.375583,-3.29879 0.375583,-3.29879 5.452733,0.380107 8.32164,5.597535 8.32164,5.597535 4.841845,8.299015 12.701927,5.900717 15.801613,4.511514 0.484184,-3.506944 1.891486,-5.905241 3.448118,-7.258243 -12.059363,-1.380152 -24.738665,-6.036469 -24.738665,-26.838306 0,-5.932392 2.122266,-10.774238 5.59301,-14.575313 -0.56111,-1.371102 -2.420922,-6.896236 0.529437,-14.371685 0,0 4.561289,-1.457078 14.937319,5.565861 4.330511,-1.203675 8.973254,-1.805512 13.588844,-1.828138 4.615593,0.02263 9.26286,0.624463 13.60242,1.828138 10.366979,-7.022939 14.919219,-5.565861 14.919219,-5.565861 2.954885,7.479973 1.095073,13.005107 0.533962,14.371685 3.484318,3.801075 5.588485,8.647445 5.588485,14.575313 0,20.856138 -12.701927,25.449104 -24.792965,26.793055 1.945789,1.683333 3.724149,4.986649 3.724149,10.054748 v 14.901119 c 0,1.44351 0.868816,3.14041 3.624597,2.60645 C 93.062991,98.633377 108.60215,78.284049 108.60215,54.301074 108.60215,24.313305 84.288844,0 54.301074,0 Z"
     id="path2"
     style="stroke-width:4.52509" />
</svg>
