<?xml version="1.0" encoding="UTF-8" standalone="no"?>
<!-- Uploaded to: SVG Repo, www.svgrepo.com, Generator: SVG Repo Mixer Tools -->

<svg
   width="666.66669"
   height="666.66669"
   viewBox="0 0 20.000001 20.000001"
   fill="none"
   version="1.1"
   id="svg4"
   sodipodi:docname="info.svg"
   inkscape:version="1.1.2 (0a00cf5339, 2022-02-04)"
   xmlns:inkscape="http://www.inkscape.org/namespaces/inkscape"
   xmlns:sodipodi="http://sodipodi.sourceforge.net/DTD/sodipodi-0.dtd"
   xmlns="http://www.w3.org/2000/svg"
   xmlns:svg="http://www.w3.org/2000/svg">
  <defs
     id="defs8" />
  <sodipodi:namedview
     id="namedview6"
     pagecolor="#ffffff"
     bordercolor="#666666"
     borderopacity="1.0"
     inkscape:pageshadow="2"
     inkscape:pageopacity="0.0"
     inkscape:pagecheckerboard="0"
     showgrid="false"
     inkscape:zoom="0.449375"
     inkscape:cx="662.0306"
     inkscape:cy="778.85953"
     inkscape:window-width="1846"
     inkscape:window-height="1163"
     inkscape:window-x="0"
     inkscape:window-y="0"
     inkscape:window-maximized="1"
     inkscape:current-layer="svg4" />
  <path
     d="M 10,20 C 4.477,20 0,15.523 0,10 0,4.477 4.477,0 10,0 15.523,0 20,4.477 20,10 20,15.523 15.523,20 10,20 Z M 9.304,16.466 c 0.63,0 1.332,-0.288 2.196,-1.458 l 0.911,-1.22 a 0.334,0.334 0 0 0 -0.074,-0.472 0.38,0.38 0 0 0 -0.505,0.06 l -1.475,1.679 a 0.241,0.241 0 0 1 -0.279,0.061 0.211,0.211 0 0 1 -0.12,-0.244 L 11.816,7.426 A 0.499,0.499 0 0 0 11.241,6.813 L 7.891,7.426 A 0.35,0.35 0 0 0 7.615,7.684 L 7.529,8.018 A 0.25,0.25 0 0 0 7.772,8.33 h 1.73 l -1.476,5.922 c -0.054,0.234 -0.144,0.63 -0.144,0.918 0,0.666 0.396,1.296 1.422,1.296 z M 11.134,5.93 c 0.702,0 1.242,-0.414 1.386,-1.044 C 12.556,4.742 12.574,4.58 12.574,4.472 12.574,3.968 12.178,3.5 11.44,3.5 10.738,3.5 10.198,3.914 10.054,4.544 A 1.868,1.868 0 0 0 10,4.958 c 0,0.504 0.396,0.972 1.134,0.972 z"
     fill="#000000"
     id="path2"
     style="fill:#4090fd;fill-opacity:1;stroke:none;stroke-width:0.99999;stroke-miterlimit:4;stroke-dasharray:none" />
</svg>
