<?xml version="1.0" encoding="UTF-8" standalone="no"?>
<svg
   width="126mm"
   height="23mm"
   viewBox="0 0 126 23"
   version="1.1"
   id="svg5"
   inkscape:version="1.1.2 (0a00cf5339, 2022-02-04)"
   sodipodi:docname="run.svg"
   inkscape:export-filename="/home/dfranco/Documents/0.thesis/BiaPy-GUI-arg4/images/bn_images/run.png"
   inkscape:export-xdpi="51.90435"
   inkscape:export-ydpi="51.90435"
   xmlns:inkscape="http://www.inkscape.org/namespaces/inkscape"
   xmlns:sodipodi="http://sodipodi.sourceforge.net/DTD/sodipodi-0.dtd"
   xmlns="http://www.w3.org/2000/svg"
   xmlns:svg="http://www.w3.org/2000/svg"
   xmlns:rdf="http://www.w3.org/1999/02/22-rdf-syntax-ns#"
   xmlns:cc="http://creativecommons.org/ns#"
   xmlns:dc="http://purl.org/dc/elements/1.1/">
  <metadata
     id="metadata10">
    <rdf:RDF>
      <cc:Work
         rdf:about="">
        <dc:format>image/svg+xml</dc:format>
        <dc:type
           rdf:resource="http://purl.org/dc/dcmitype/StillImage" />
      </cc:Work>
    </rdf:RDF>
  </metadata>
  <sodipodi:namedview
     id="namedview7"
     pagecolor="#ffffff"
     bordercolor="#666666"
     borderopacity="1.0"
     inkscape:pageshadow="2"
     inkscape:pageopacity="0.0"
     inkscape:pagecheckerboard="0"
     inkscape:document-units="mm"
     showgrid="false"
     inkscape:zoom="1.2810466"
     inkscape:cx="134.65552"
     inkscape:cy="64.790773"
     inkscape:window-width="1846"
     inkscape:window-height="1163"
     inkscape:window-x="74"
     inkscape:window-y="0"
     inkscape:window-maximized="1"
     inkscape:current-layer="layer1"
     inkscape:document-rotation="0"
     width="95.99562mm"
     height="23mm" />
  <defs
     id="defs2">
    <rect
       x="143.78255"
       y="43.349037"
       width="302.91681"
       height="98.809967"
       id="rect4478" />
  </defs>
  <g
     inkscape:label="Layer 1"
     inkscape:groupmode="layer"
     id="layer1"
     transform="translate(-7.0888724,-5.4919925)">
    <text
       xml:space="preserve"
       transform="matrix(0.26458333,0,0,0.26458333,-2.4639212,-0.06934688)"
       id="text4476"
       style="font-style:normal;font-weight:normal;font-size:32px;line-height:1.25;font-family:sans-serif;white-space:pre;shape-inside:url(#rect4478);fill:#000000;fill-opacity:1;stroke:none"
       inkscape:export-filename="/home/dfranco/Documents/0.thesis/BiaPy_GUI/Minimalistic-Flat-Modern-GUI-Template/icons/1x/new/text4476.png"
       inkscape:export-xdpi="44.358955"
       inkscape:export-ydpi="44.358955"><tspan
         x="143.7832"
         y="71.662109"
         id="tspan841"><tspan
           style="font-family:'DejaVu Serif';-inkscape-font-specification:'DejaVu Serif'"
           id="tspan839">Run BiaPy</tspan></tspan></text>
    <g
       id="System / Data"
       transform="matrix(8.8194444,0,0,8.8194444,-119.39815,-99.308656)" />
    <path
       fill-rule="evenodd"
       clip-rule="evenodd"
       d="m 17.637096,12.67498 0.915647,-0.915692 c 0.737744,-0.737713 2.031679,-1.249675 3.317532,-1.433348 0.633647,-0.09051 1.232836,-0.09614 1.72192,-0.0229 0.506253,0.07582 0.816553,0.224019 0.961571,0.368936 0.144904,0.144916 0.293124,0.455179 0.368899,0.961455 0.07322,0.489069 0.06767,1.088295 -0.02289,1.721965 -0.183705,1.285807 -0.695683,2.579751 -1.43348,3.317517 l -5.089315,5.089361 -1.312214,-1.312161 c -0.2235,-0.223538 -0.58586,-0.223538 -0.809352,0 -0.223489,0.223424 -0.223489,0.585807 0,0.809345 l 1.716901,1.716879 c 0.2235,0.223424 0.585852,0.223424 0.809345,0 l 0.626302,-0.626317 1.339753,2.232863 c 0.09067,0.1512 0.245899,0.252036 0.420814,0.273675 0.174892,0.02152 0.35002,-0.03878 0.474547,-0.163335 l 2.289182,-2.289182 c 0.127394,-0.127386 0.187369,-0.307319 0.161958,-0.485648 l -0.531891,-3.722783 0.713421,-0.713352 c 0.979082,-0.979165 1.554464,-2.546714 1.757055,-3.964995 0.102675,-0.718378 0.114924,-1.431837 0.0219,-2.053356 -0.09054,-0.604322 -0.292903,-1.202552 -0.691675,-1.6012928 -0.398658,-0.398729 -0.996942,-0.601044 -1.601278,-0.691545 -0.621511,-0.09308 -1.33494,-0.08083 -2.053394,0.02179 -1.418228,0.2026 -2.985784,0.777977 -3.964927,1.7570818 l -0.713329,0.713377 -3.722788,-0.531823 c -0.178315,-0.02548 -0.358233,0.03452 -0.485603,0.161868 l -2.289176,2.289166 c -0.124613,0.124627 -0.184866,0.299701 -0.163334,0.474608 0.02153,0.174907 0.122448,0.330144 0.273565,0.420822 l 2.232958,1.339761 -0.626296,0.626286 c -0.107316,0.107329 -0.167614,0.252895 -0.167614,0.40468 0,0.15177 0.06029,0.297344 0.167614,0.404673 l 1.716895,1.716878 c 0.223492,0.223508 0.585846,0.223508 0.809338,0 0.223504,-0.223492 0.223504,-0.585844 0,-0.809337 l -1.312214,-1.312214 0.73992,-0.739918 z m 3.71502,10.690517 -1.109912,-1.84977 2.308418,-2.308441 0.370039,2.589666 z M 13.70994,14.983459 16.018392,12.674995 13.42868,12.30504 11.860136,13.873585 Z m -1.223509,5.131293 c 0.223492,-0.223424 0.223492,-0.585799 0,-0.809291 -0.223493,-0.223493 -0.585857,-0.223493 -0.809349,0 l -1.144588,1.144537 c -0.223496,0.223538 -0.223496,0.585921 0,0.809345 0.223495,0.223538 0.585857,0.223538 0.809349,0 z m 1.716907,1.717 c 0.223492,-0.223545 0.223504,-0.58592 1.1e-5,-0.809344 -0.223492,-0.223538 -0.585847,-0.223538 -0.809351,0 l -2.289211,2.289067 c -0.223492,0.223539 -0.223495,0.585913 0,0.809337 0.223493,0.223539 0.585847,0.223539 0.80934,8.4e-5 z m 1.71686,1.716765 c 0.223493,-0.223424 0.223493,-0.585799 0,-0.809337 -0.223492,-0.223424 -0.585858,-0.223424 -0.809351,0 l -1.144588,1.144591 c -0.223493,0.223538 -0.223493,0.585913 0,0.809337 0.223492,0.223538 0.585857,0.223538 0.80935,0 z m 4.745937,-7.559654 c 0.789454,0 1.429397,-0.63995 1.429397,-1.429374 0,-0.789423 -0.639943,-1.429389 -1.429397,-1.429389 -0.789439,0 -1.429389,0.639966 -1.429389,1.429389 0,0.789424 0.63995,1.429374 1.429389,1.429374 z"
       fill="#000000"
       id="path2"
       style="stroke-width:1.14459" />
  </g>
</svg>
