<?xml version="1.0" encoding="UTF-8" standalone="no"?>
<svg
   width="126mm"
   height="23mm"
   viewBox="0 0 126 23"
   version="1.1"
   id="svg5"
   inkscape:version="1.4.2 (1:1.4.2+202505120737+ebf0e940d0)"
   sodipodi:docname="tour.svg"
   inkscape:export-filename="../Documents/0.thesis/BiaPy-GUI/images/bn_images/tour.png"
   inkscape:export-xdpi="51.90435"
   inkscape:export-ydpi="51.90435"
   xml:space="preserve"
   xmlns:inkscape="http://www.inkscape.org/namespaces/inkscape"
   xmlns:sodipodi="http://sodipodi.sourceforge.net/DTD/sodipodi-0.dtd"
   xmlns="http://www.w3.org/2000/svg"
   xmlns:svg="http://www.w3.org/2000/svg"
   xmlns:rdf="http://www.w3.org/1999/02/22-rdf-syntax-ns#"
   xmlns:cc="http://creativecommons.org/ns#"
   xmlns:dc="http://purl.org/dc/elements/1.1/"><metadata
     id="metadata10"><rdf:RDF><cc:Work
         rdf:about=""><dc:format>image/svg+xml</dc:format><dc:type
           rdf:resource="http://purl.org/dc/dcmitype/StillImage" /></cc:Work></rdf:RDF></metadata><sodipodi:namedview
     id="namedview7"
     pagecolor="#ffffff"
     bordercolor="#666666"
     borderopacity="1.0"
     inkscape:pageshadow="2"
     inkscape:pageopacity="0.0"
     inkscape:pagecheckerboard="0"
     inkscape:document-units="mm"
     showgrid="false"
     inkscape:zoom="1.8116735"
     inkscape:cx="169.73257"
     inkscape:cy="93.007929"
     inkscape:window-width="1854"
     inkscape:window-height="1163"
     inkscape:window-x="1986"
     inkscape:window-y="0"
     inkscape:window-maximized="1"
     inkscape:current-layer="layer1"
     inkscape:document-rotation="0"
     width="95.99562mm"
     height="23mm"
     inkscape:showpageshadow="2"
     inkscape:deskcolor="#d1d1d1" /><defs
     id="defs2"><rect
       x="143.78255"
       y="43.349037"
       width="302.91681"
       height="98.809967"
       id="rect4478" /></defs><g
     inkscape:label="Layer 1"
     inkscape:groupmode="layer"
     id="layer1"
     transform="translate(-7.0888724,-5.4919925)"><text
       xml:space="preserve"
       transform="matrix(0.26458333,0,0,0.26458333,-2.4639212,0.96763605)"
       id="text4476"
       style="font-style:normal;font-weight:normal;font-size:32px;line-height:1.25;font-family:sans-serif;white-space:pre;shape-inside:url(#rect4478);display:inline;fill:#000000;fill-opacity:1;stroke:none"
       inkscape:export-filename="/home/dfranco/Documents/0.thesis/BiaPy_GUI/Minimalistic-Flat-Modern-GUI-Template/icons/1x/new/text4476.png"
       inkscape:export-xdpi="44.358955"
       inkscape:export-ydpi="44.358955"><tspan
         x="143.7832"
         y="72.465615"
         id="tspan2">Take a tour</tspan></text><g
       id="System / Data"
       transform="matrix(8.8194444,0,0,8.8194444,-119.39815,-99.308656)" /><g
       style="fill:#000000"
       id="g1"
       transform="matrix(0.60588462,0,0,0.60588462,8.5471299,7.1200259)"><path
         d="m 29,18.5 c 0,7.18 -5.82,13 -13,13 C 8.82,31.5 3,25.68 3,18.5 3,12.17 7.525,6.903 13.515,5.743 13.19,5.264 13,4.686 13,4.062 c 0,-1.657 1.343,-3 3,-3 1.656,0 3,1.343 3,3 0,0.623 -0.19,1.201 -0.516,1.681 C 24.475,6.903 29,12.17 29,18.5 Z M 16,2.5 c -0.829,0 -1.5,0.672 -1.5,1.5 0,0.828 0.671,1.5 1.5,1.5 0.828,0 1.5,-0.672 1.5,-1.5 0,-0.828 -0.672,-1.5 -1.5,-1.5 z m 1,5.05 V 10 H 15 V 7.55 C 9.579,8.039 5.305,12.584 5.026,18.063 H 8 V 20 H 5.104 C 5.767,25.067 9.871,28.986 15,29.449 V 27 h 2 v 2.449 C 22.107,28.988 26.197,25.037 26.886,20 H 24 v -2 h 2.976 C 26.728,12.492 22.44,8.041 17,7.55 Z m -7.487,17.612 3.918,-8.868 8.81,-3.859 -3.845,8.794 z m 7.807,-7.808 c -0.781,-0.781 -2.048,-0.781 -2.829,0 -0.781,0.781 -0.781,2.047 0,2.828 0.781,0.781 2.048,0.781 2.829,0 0.781,-0.781 0.781,-2.046 0,-2.828 z"
         id="path1" /></g></g></svg>
