<?xml version="1.0" encoding="UTF-8" standalone="no"?>
<svg
   width="126mm"
   height="23mm"
   viewBox="0 0 126 23"
   version="1.1"
   id="svg5"
   inkscape:version="1.1.2 (0a00cf5339, 2022-02-04)"
   sodipodi:docname="train.svg"
   inkscape:export-filename="/home/dfranco/Documents/0.thesis/BiaPy-GUI-arg4/images/bn_images/train.png"
   inkscape:export-xdpi="51.90435"
   inkscape:export-ydpi="51.90435"
   xmlns:inkscape="http://www.inkscape.org/namespaces/inkscape"
   xmlns:sodipodi="http://sodipodi.sourceforge.net/DTD/sodipodi-0.dtd"
   xmlns="http://www.w3.org/2000/svg"
   xmlns:svg="http://www.w3.org/2000/svg"
   xmlns:rdf="http://www.w3.org/1999/02/22-rdf-syntax-ns#"
   xmlns:cc="http://creativecommons.org/ns#"
   xmlns:dc="http://purl.org/dc/elements/1.1/">
  <metadata
     id="metadata10">
    <rdf:RDF>
      <cc:Work
         rdf:about="">
        <dc:format>image/svg+xml</dc:format>
        <dc:type
           rdf:resource="http://purl.org/dc/dcmitype/StillImage" />
      </cc:Work>
    </rdf:RDF>
  </metadata>
  <sodipodi:namedview
     id="namedview7"
     pagecolor="#ffffff"
     bordercolor="#666666"
     borderopacity="1.0"
     inkscape:pageshadow="2"
     inkscape:pageopacity="0.0"
     inkscape:pagecheckerboard="0"
     inkscape:document-units="mm"
     showgrid="false"
     inkscape:zoom="2.5620932"
     inkscape:cx="91.526725"
     inkscape:cy="93.087949"
     inkscape:window-width="1846"
     inkscape:window-height="1136"
     inkscape:window-x="1994"
     inkscape:window-y="27"
     inkscape:window-maximized="1"
     inkscape:current-layer="layer1"
     inkscape:document-rotation="0" />
  <defs
     id="defs2">
    <rect
       x="143.78255"
       y="43.349037"
       width="302.91681"
       height="98.809967"
       id="rect4478" />
  </defs>
  <g
     inkscape:label="Layer 1"
     inkscape:groupmode="layer"
     id="layer1"
     transform="translate(-7.0888724,-5.4919925)">
    <text
       xml:space="preserve"
       transform="matrix(0.26458333,0,0,0.26458333,21.704551,0.93011271)"
       id="text4476"
       style="font-style:normal;font-weight:normal;font-size:32px;line-height:1.25;font-family:sans-serif;white-space:pre;shape-inside:url(#rect4478);fill:#000000;fill-opacity:1;stroke:none"
       inkscape:export-filename="/home/dfranco/Documents/0.thesis/BiaPy_GUI/Minimalistic-Flat-Modern-GUI-Template/icons/1x/new/text4476.png"
       inkscape:export-xdpi="44.358955"
       inkscape:export-ydpi="44.358955"><tspan
         x="143.7832"
         y="71.662109"
         id="tspan935"><tspan
           style="font-family:'DejaVu Serif';-inkscape-font-specification:'DejaVu Serif'"
           id="tspan933">Train</tspan></tspan></text>
    <g
       id="System / Data"
       transform="matrix(8.8194444,0,0,8.8194444,-119.39815,-99.308656)" />
    <g
       id="System / Data-7"
       transform="matrix(0.89844897,0,0,0.89844897,26.641179,6.0158974)"
       style="fill:none;stroke-width:1.11303;stroke-miterlimit:4;stroke-dasharray:none">
      <path
         id="Vector"
         d="m 18,12 v 5 c 0,1.6569 -2.6863,3 -6,3 -3.31371,0 -6,-1.3431 -6,-3 v -5 m 12,0 V 7 m 0,5 c 0,1.6569 -2.6863,3 -6,3 C 8.68629,15 6,13.6569 6,12 M 18,7 C 18,5.34315 15.3137,4 12,4 8.68629,4 6,5.34315 6,7 m 12,0 c 0,1.65685 -2.6863,3 -6,3 C 8.68629,10 6,8.65685 6,7 m 0,5 V 7"
         stroke="#000000"
         stroke-width="2"
         stroke-linecap="round"
         stroke-linejoin="round"
         style="fill:none;stroke-width:1.11303;stroke-miterlimit:4;stroke-dasharray:none" />
    </g>
    <g
       id="g1307"
       transform="translate(3.694e-4,5.5e-5)">
      <path
         d="m 26.299781,15.296179 h -3.044787 c -0.420398,0 -0.761197,0.3408 -0.761197,0.761198 v 0.761196 H 18.520882 V 3.9149375 H 16.998503 V 32.590997 l 1.522379,-0.0055 V 18.340973 h 3.972915 v 0.761197 c 0,0.420398 0.340799,0.761197 0.761197,0.761197 h 3.044787 c 0.420397,0 0.761197,-0.340799 0.761197,-0.761197 v -3.044792 c 0,-0.420397 -0.3408,-0.761197 -0.761197,-0.761197 z m -0.761197,3.044788 h -1.522393 v -1.522394 h 1.522393 z"
         id="path2"
         sodipodi:nodetypes="cssccccccccsssssscccccc"
         style="stroke-width:0.761194" />
    </g>
  </g>
</svg>
