<?xml version="1.0" encoding="UTF-8" standalone="no"?>
<!-- Created with Inkscape (http://www.inkscape.org/) -->

<svg
   width="65mm"
   height="20mm"
   viewBox="0 0 65 19.999999"
   version="1.1"
   id="svg9286"
   inkscape:version="1.1.2 (0a00cf5339, 2022-02-04)"
   sodipodi:docname="template_bn.svg"
   xmlns:inkscape="http://www.inkscape.org/namespaces/inkscape"
   xmlns:sodipodi="http://sodipodi.sourceforge.net/DTD/sodipodi-0.dtd"
   xmlns="http://www.w3.org/2000/svg"
   xmlns:svg="http://www.w3.org/2000/svg">
  <sodipodi:namedview
     id="namedview9288"
     pagecolor="#ffffff"
     bordercolor="#666666"
     borderopacity="1.0"
     inkscape:pageshadow="2"
     inkscape:pageopacity="0.0"
     inkscape:pagecheckerboard="0"
     inkscape:document-units="mm"
     showgrid="false"
     inkscape:zoom="1.8116734"
     inkscape:cx="40.01825"
     inkscape:cy="47.193936"
     inkscape:window-width="1846"
     inkscape:window-height="1136"
     inkscape:window-x="0"
     inkscape:window-y="0"
     inkscape:window-maximized="1"
     inkscape:current-layer="layer1" />
  <defs
     id="defs9283">
    <rect
       x="-42.758724"
       y="-58.097614"
       width="319.07654"
       height="209.20532"
       id="rect4260" />
  </defs>
  <g
     inkscape:label="Layer 1"
     inkscape:groupmode="layer"
     id="layer1"
     transform="translate(3.9926759,-28.959404)">
    <g
       style="fill:none"
       id="g842"
       transform="matrix(0.59681215,0,0,0.59681215,-0.13248805,31.986592)">
      <path
         fill-rule="evenodd"
         clip-rule="evenodd"
         d="M 6.55281,1.60553 C 7.10941,1.32725 7.77344,1 9,1 c 1.2265,0 1.8906,0.32722 2.4472,0.6055 l 0.0159,0.00797 c 0.4356,0.21784 0.7728,0.38644 1.5369,0.38646 1.2371,5e-5 1.9698,-0.46122 2.2141,-0.64481 0.3803,-0.2858 0.8296,-0.2617 1.1398,-0.11822 C 16.6681,1.38223 17,1.72899 17,2.24148 V 13 h 3 c 1.6562,0 3,1.3415 3,2.999 V 19 c 0,0.925 -0.2341,1.6852 -0.6367,2.2891 -0.3984,0.5976 -0.9225,0.9835 -1.4161,1.2303 -0.4897,0.2449 -0.9673,0.3623 -1.3141,0.4201 C 19.4249,22.9742 19.2116,23.0004 19,23 H 5 C 4.07502,23 3.3148,22.7659 2.71092,22.3633 2.11331,21.9649 1.72739,21.4408 1.48057,20.9472 1.23572,20.4575 1.11827,19.9799 1.06048,19.6332 1.03119,19.4574 1.01616,19.3088 1.0084,19.2002 1.00194,19.1097 1.00003,19.0561 1,19 V 2.24146 C 1,1.72899 1.33184,1.38223 1.64606,1.2369 1.95628,1.09341 2.40561,1.06931 2.78589,1.35509 3.03019,1.53868 3.76289,1.99993 5,1.99993 c 0.76415,0 1.10128,-0.16859 1.53688,-0.38643 z M 3.00332,19 3,3.68371 c 0.54018,0.18206 1.20732,0.31622 2,0.31622 1.22656,0 1.89059,-0.32724 2.44719,-0.60552 L 7.46312,3.38644 C 7.89872,3.1686 8.23585,3 9,3 c 0.76417,0 1.1013,0.16859 1.5369,0.38643 l 0.0159,0.00796 C 11.1094,3.67266 11.7734,3.9999 13,3.99993 c 0.7927,3e-5 1.4598,-0.13412 2,-0.3162 V 19 c 0,0.783 0.1678,1.448 0.4635,2 H 5 C 4.42498,21 4.0602,20.8591 3.82033,20.6992 3.57419,20.5351 3.39761,20.3092 3.26943,20.0528 3.13928,19.7925 3.06923,19.5201 3.03327,19.3044 3.01637,19.2029 3.00612,19.1024 3.00332,19 Z m 16.30108,1.9667 c 0.2157,-0.0359 0.4881,-0.106 0.7484,-0.2361 0.2564,-0.1282 0.4823,-0.3048 0.6464,-0.5509 C 20.8591,19.9398 21,19.575 21,19 V 15.999 C 21,15.4474 20.5529,15 20,15 h -3 v 4 c 0,0.575 0.1409,0.9398 0.3008,1.1797 0.1641,0.2461 0.39,0.4227 0.6464,0.5509 0.2603,0.1301 0.5327,0.2002 0.7485,0.2361 0.1055,0.0176 0.1912,0.026 0.2466,0.03 0.1206,0.0086 0.2434,-0.0102 0.3621,-0.03 z"
         fill="#0f0f0f"
         id="path824" />
      <path
         d="M 5,8 C 5,7.44772 5.44772,7 6,7 h 6 c 0.5523,0 1,0.44772 1,1 0,0.55229 -0.4477,1 -1,1 H 6 C 5.44772,9 5,8.55229 5,8 Z"
         fill="#0f0f0f"
         id="path826" />
      <path
         d="m 5,12 c 0,-0.5523 0.44772,-1 1,-1 h 6 c 0.5523,0 1,0.4477 1,1 0,0.5523 -0.4477,1 -1,1 H 6 C 5.44772,13 5,12.5523 5,12 Z"
         fill="#0f0f0f"
         id="path828" />
      <path
         d="m 5,16 c 0,-0.5523 0.44772,-1 1,-1 h 6 c 0.5523,0 1,0.4477 1,1 0,0.5523 -0.4477,1 -1,1 H 6 C 5.44772,17 5,16.5523 5,16 Z"
         fill="#0f0f0f"
         id="path830" />
    </g>
    <text
       xml:space="preserve"
       style="font-style:normal;font-variant:normal;font-weight:normal;font-stretch:normal;font-size:7.85493px;line-height:1.25;font-family:'DejaVu Math TeX Gyre';-inkscape-font-specification:'DejaVu Math TeX Gyre, Normal';font-variant-ligatures:normal;font-variant-caps:normal;font-variant-numeric:normal;font-variant-east-asian:normal;fill:#000000;fill-opacity:1;stroke:none;stroke-width:0.196373"
       x="20.865185"
       y="42.380959"
       id="text5250"><tspan
         sodipodi:role="line"
         id="tspan5248"
         style="font-style:normal;font-variant:normal;font-weight:normal;font-stretch:normal;font-size:8.11389px;font-family:'DejaVu Math TeX Gyre';-inkscape-font-specification:'DejaVu Math TeX Gyre, Normal';font-variant-ligatures:normal;font-variant-caps:normal;font-variant-numeric:normal;font-variant-east-asian:normal;stroke-width:0.196373"
         x="20.865185"
         y="42.380959">Template</tspan></text>
    <text
       xml:space="preserve"
       transform="matrix(0.26458333,0,0,0.26458333,-3.9926759,28.959404)"
       id="text4258"
       style="font-style:normal;font-weight:normal;font-size:40px;line-height:1.25;font-family:sans-serif;white-space:pre;shape-inside:url(#rect4260);fill:#000000;fill-opacity:1;stroke:none" />
  </g>
</svg>
