<?xml version="1.0" encoding="UTF-8" standalone="no"?>
<svg
   xmlns:dc="http://purl.org/dc/elements/1.1/"
   xmlns:cc="http://creativecommons.org/ns#"
   xmlns:rdf="http://www.w3.org/1999/02/22-rdf-syntax-ns#"
   xmlns:svg="http://www.w3.org/2000/svg"
   xmlns="http://www.w3.org/2000/svg"
   xmlns:sodipodi="http://sodipodi.sourceforge.net/DTD/sodipodi-0.dtd"
   xmlns:inkscape="http://www.inkscape.org/namespaces/inkscape"
   width="800"
   height="203.37807"
   viewBox="0 -190.5 512 130.16196"
   version="1.1"
   preserveAspectRatio="xMidYMid"
   id="svg6"
   sodipodi:docname="docker-svgrepo-com.svg"
   inkscape:version="1.0.2-2 (e86c870879, 2021-01-15)">
  <metadata
     id="metadata12">
    <rdf:RDF>
      <cc:Work
         rdf:about="">
        <dc:format>image/svg+xml</dc:format>
        <dc:type
           rdf:resource="http://purl.org/dc/dcmitype/StillImage" />
        <dc:title></dc:title>
      </cc:Work>
    </rdf:RDF>
  </metadata>
  <defs
     id="defs10" />
  <sodipodi:namedview
     pagecolor="#ffffff"
     bordercolor="#666666"
     borderopacity="1"
     objecttolerance="10"
     gridtolerance="10"
     guidetolerance="10"
     inkscape:pageopacity="0"
     inkscape:pageshadow="2"
     inkscape:window-width="1920"
     inkscape:window-height="1017"
     id="namedview8"
     showgrid="false"
     inkscape:zoom="0.75130096"
     inkscape:cx="423.43333"
     inkscape:cy="122.03926"
     inkscape:window-x="-8"
     inkscape:window-y="-8"
     inkscape:window-maximized="1"
     inkscape:current-layer="g4" />
  <g
     id="g4"
     transform="translate(0,-190.5)">
    <path
       d="m 140.59786,25.715353 3.89229,2.818121 c 6.76922,5.460109 10.66151,11.624748 11.50767,18.67005 7.2769,-1.40906 16.58457,-0.352264 20.6461,2.465856 v 0 l 3.72306,2.289724 -0.67692,1.40906 c -1.18461,2.641988 -1.52307,3.346519 -1.6923,3.698784 -6.59998,13.209941 -19.63072,13.386074 -25.72301,13.209941 -15.39996,38.573031 -48.23064,59.885071 -92.568991,59.885071 -20.476871,0 -36.046061,-6.51691 -46.538342,-19.37458 C -0.70946996,93.878652 -0.70946996,71.862082 0.47514237,64.81678 v 0 L 0.81360304,63.40772 H 123.16713 c 6.43075,0 11.33843,-1.761326 13.70766,-3.170386 -2.53846,-3.874917 -3.38461,-8.27823 -3.55384,-10.744086 -0.50769,-7.045302 1.18461,-14.44287 4.56922,-19.726846 v 0 z m 106.01452,8.178448 c 1.36522,0 2.52098,0.457651 3.46733,1.372967 0.94634,0.915317 1.4195,2.07108 1.4195,3.467325 V 82.29672 c 0,7.260474 -2.54423,13.40386 -7.63276,18.43034 -5.1506,5.08854 -11.29398,7.63277 -18.43035,7.63277 -7.19842,0 -13.3418,-2.54423 -18.43034,-7.63277 -5.08854,-5.088536 -7.63277,-11.231922 -7.63277,-18.43034 0,-7.198419 2.54423,-13.341805 7.63277,-18.430342 5.08854,-5.088538 11.23192,-7.632768 18.43034,-7.632768 6.17451,0 11.61978,1.908172 16.33599,5.724576 V 38.734093 c 0,-1.396245 0.45765,-2.552008 1.37297,-3.467325 0.91531,-0.915316 2.07108,-1.372967 3.46732,-1.372967 z M 283.1026,56.23361 c 7.13636,0 13.27975,2.54423 18.43034,7.632768 2.54427,2.544268 4.44468,5.35223 5.7013,8.423969 1.25662,3.071739 1.90044,6.407163 1.93147,10.006373 0,7.260474 -2.54423,13.40386 -7.63277,18.43034 -5.15059,5.08854 -11.29398,7.63277 -18.43034,7.63277 -7.19842,0 -13.34181,-2.54423 -18.43035,-7.63277 -5.08853,-5.088536 -7.63276,-11.231922 -7.63276,-18.43034 0,-7.198419 2.54423,-13.341805 7.63276,-18.430342 5.08854,-5.088538 11.23193,-7.632768 18.43035,-7.632768 z m 57.57341,0 c 6.54683,0 12.2093,2.109849 16.98756,6.329612 1.117,0.992885 1.67549,2.21846 1.67549,3.67676 0,1.396245 -0.45766,2.559765 -1.37297,3.490595 -0.91532,0.93083 -2.07108,1.396238 -3.46733,1.396238 -1.17905,0 -2.23397,-0.372326 -3.1648,-1.11699 -1.58241,-1.33419 -3.24237,-2.342574 -4.97992,-3.025182 -1.73755,-0.682609 -3.63021,-1.023909 -5.67803,-1.023909 -2.26502,0 -4.39039,0.426625 -6.37616,1.279885 -1.98577,0.853261 -3.72329,2.016782 -5.21262,3.490596 -1.48933,1.473814 -2.6606,3.20358 -3.51386,5.189351 -0.85327,1.985771 -1.27989,4.111134 -1.27989,6.376154 0,2.26502 0.42662,4.390383 1.27989,6.376153 0.85326,1.985771 2.02453,3.715538 3.51386,5.189352 1.48933,1.473814 3.22685,2.637334 5.21262,3.490595 1.98577,0.853261 4.11114,1.279885 6.37616,1.279885 2.04782,0 3.94048,-0.333543 5.67803,-1.000637 1.73755,-0.667096 3.38199,-1.667723 4.93338,-3.001912 0.86877,-0.651582 1.89267,-0.99288 3.07172,-1.023908 1.39624,0 2.55201,0.457651 3.46732,1.372967 0.91532,0.915316 1.37297,2.07108 1.37297,3.467325 0,1.365217 -0.51195,2.55976 -1.53586,3.58368 -4.80929,4.21976 -10.47175,6.32961 -16.98756,6.32961 -7.19842,0 -13.34181,-2.54423 -18.43035,-7.63277 -5.08853,-5.088536 -7.63276,-11.231922 -7.63276,-18.43034 0,-7.198419 2.54423,-13.341805 7.63276,-18.430342 5.08854,-5.088538 11.23193,-7.632768 18.43035,-7.632768 z m 29.04361,-22.339809 c 1.33419,0 2.47444,0.473165 3.42078,1.419509 0.94635,0.946343 1.41951,2.102107 1.41951,3.467324 V 75.082823 L 402.39159,56.97827 c 0.77569,-0.496443 1.64445,-0.74466 2.60631,-0.74466 0.68261,0 1.31867,0.124108 1.90819,0.37233 0.58953,0.248221 1.10148,0.597277 1.53586,1.047178 0.43439,0.449901 0.78345,0.969607 1.04718,1.559133 0.26374,0.589525 0.3956,1.210069 0.3956,1.861651 0,1.737549 -0.62054,3.025178 -1.86165,3.862925 l -19.50079,12.659225 20.01275,22.525978 c 0.8998,0.99288 1.34969,2.12537 1.34969,3.39751 0,0.65158 -0.13186,1.27212 -0.3956,1.86165 -0.26373,0.58952 -0.61279,1.10923 -1.04718,1.55913 -0.43438,0.4499 -0.94633,0.79896 -1.53586,1.04718 -0.58952,0.24822 -1.22558,0.37233 -1.90819,0.37233 -1.30316,0 -2.38911,-0.41887 -3.25789,-1.25661 l -21.50206,-24.154923 -5.67804,3.723302 V 103.473 c 0,1.33419 -0.47316,2.48219 -1.41951,3.44405 -0.94634,0.96186 -2.08659,1.44278 -3.42078,1.44278 -1.36522,0 -2.52098,-0.48092 -3.46732,-1.44278 -0.94635,-0.96186 -1.41951,-2.10986 -1.41951,-3.44405 V 38.780634 c 0,-1.365217 0.47316,-2.520981 1.41951,-3.467324 0.94634,-0.946344 2.1021,-1.419509 3.46732,-1.419509 z m 71.48925,22.339809 c 7.13636,0 13.27975,2.54423 18.43034,7.632768 2.54427,2.51324 4.45244,5.313445 5.72458,8.400698 1.27213,3.087253 1.90819,6.430434 1.90819,10.029644 0,1.396245 -0.47317,2.552008 -1.41951,3.467324 -0.94634,0.915316 -2.10211,1.372968 -3.46732,1.372968 h -36.86069 c 0.52747,1.706521 1.30315,3.265638 2.32707,4.677397 1.02391,1.411759 2.22621,2.62182 3.60694,3.630219 1.38073,1.008399 2.90107,1.791836 4.56105,2.350334 1.65998,0.558498 3.38974,0.837743 5.18935,0.837743 2.04783,0 3.92497,-0.310272 5.63149,-0.930825 1.70652,-0.620554 3.28891,-1.55137 4.74721,-2.792477 0.93083,-0.775691 2.00127,-1.179045 3.21135,-1.210073 1.39624,0 2.55201,0.457651 3.46732,1.372968 0.91532,0.915316 1.37297,2.071079 1.37297,3.467324 0,1.365217 -0.46541,2.528738 -1.39624,3.490598 -4.80928,4.21976 -10.48726,6.32961 -17.0341,6.32961 -7.19842,0 -13.3418,-2.54423 -18.43034,-7.63277 -5.08854,-5.088536 -7.63277,-11.231922 -7.63277,-18.43034 0,-7.198419 2.54423,-13.341805 7.63277,-18.430342 5.08854,-5.088538 11.23192,-7.632768 18.43034,-7.632768 z m 57.48033,0 c 1.36521,0 2.83125,0.09308 4.39815,0.279247 1.56689,0.186166 3.00966,0.519709 4.32834,1.000638 1.31867,0.480928 2.41238,1.140256 3.28115,1.978003 0.86878,0.837747 1.30316,1.923699 1.30316,3.257889 0,0.682609 -0.13187,1.318666 -0.3956,1.908192 -0.26373,0.589526 -0.61279,1.109231 -1.04718,1.559132 -0.43439,0.449902 -0.94633,0.798958 -1.53586,1.047179 -0.58953,0.248222 -1.22559,0.37233 -1.90819,0.37233 -0.58953,0 -1.27213,-0.17065 -2.04782,-0.511954 -1.95474,-0.775691 -4.08011,-1.163532 -6.37615,-1.163532 -2.26502,0 -4.39039,0.426625 -6.37615,1.279885 -1.98578,0.853261 -3.71554,2.016782 -5.18936,3.490596 -1.47381,1.473814 -2.63733,3.20358 -3.49059,5.189351 -0.85326,1.985771 -1.27989,4.111134 -1.27989,6.376154 v 21.22282 c 0,1.33419 -0.47316,2.47444 -1.41951,3.42078 -0.94634,0.94634 -2.08659,1.41951 -3.42078,1.41951 -1.36522,0 -2.52098,-0.47317 -3.46732,-1.41951 -0.94635,-0.94634 -1.41951,-2.08659 -1.41951,-3.42078 V 61.073902 c 0,-1.33419 0.47316,-2.47444 1.41951,-3.420784 0.94634,-0.946344 2.1021,-1.419508 3.46732,-1.419508 1.33419,0 2.47444,0.473164 3.42078,1.419508 0.94635,0.946344 1.41951,2.086594 1.41951,3.420784 v 0.930825 c 2.32708,-1.86166 4.85579,-3.288911 7.58623,-4.281797 2.73044,-0.992885 5.64699,-1.48932 8.74976,-1.48932 z m -273.2531,9.727124 c -2.29604,0 -4.43692,0.434381 -6.42269,1.303156 -1.98577,0.868775 -3.70778,2.040052 -5.16608,3.513866 -1.4583,1.473814 -2.61407,3.20358 -3.46733,5.189351 -0.85326,1.985771 -1.27988,4.095621 -1.27988,6.329613 0,2.233992 0.42662,4.343841 1.27988,6.329612 0.85326,1.985771 2.00903,3.715538 3.46733,5.189352 1.4583,1.473814 3.18031,2.645091 5.16608,3.513865 1.98577,0.868775 4.12665,1.303156 6.42269,1.303156 2.26502,0 4.39039,-0.434381 6.37616,-1.303156 1.98577,-0.868774 3.71553,-2.047808 5.18935,-3.537136 1.47381,-1.489328 2.63733,-3.219095 3.49059,-5.189351 0.85326,-1.970257 1.27989,-4.07235 1.27989,-6.306342 0,-2.233992 -0.42663,-4.336085 -1.27989,-6.306342 -0.85326,-1.970257 -2.01678,-3.700023 -3.49059,-5.189351 -1.47382,-1.489329 -3.20358,-2.668362 -5.18935,-3.537137 -1.98577,-0.868775 -4.11114,-1.303156 -6.37616,-1.303156 z m 57.6665,0 c -2.29605,0 -4.43693,0.434381 -6.4227,1.303156 -1.98577,0.868775 -3.70778,2.040052 -5.16608,3.513866 -1.4583,1.473814 -2.61406,3.20358 -3.46732,5.189351 -0.85326,1.985771 -1.27989,4.095621 -1.27989,6.329613 0,2.233992 0.42663,4.343841 1.27989,6.329612 0.85326,1.985771 2.00902,3.715538 3.46732,5.189352 1.4583,1.473814 3.18031,2.645091 5.16608,3.513865 1.98577,0.868775 4.12665,1.303156 6.4227,1.303156 2.26502,0 4.39038,-0.434381 6.37615,-1.303156 1.98577,-0.868774 3.71554,-2.047808 5.18935,-3.537136 1.47382,-1.489328 2.63734,-3.219095 3.4906,-5.189351 0.85326,-1.970257 1.27988,-4.07235 1.27988,-6.306342 0,-2.233992 -0.42662,-4.336085 -1.27988,-6.306342 -0.85326,-1.970257 -2.01678,-3.700023 -3.4906,-5.189351 -1.47381,-1.489329 -3.20358,-2.668362 -5.18935,-3.537137 -1.98577,-0.868775 -4.11113,-1.303156 -6.37615,-1.303156 z m 158.10627,0 c -1.76858,0 -3.49059,0.279245 -5.16608,0.837743 -1.67549,0.558498 -3.21134,1.341935 -4.60759,2.350334 -1.39624,1.0084 -2.6063,2.21846 -3.63022,3.630219 -1.02391,1.411759 -1.78407,2.970876 -2.28052,4.677398 h 31.36882 c -0.52747,-1.706522 -1.31091,-3.265639 -2.35034,-4.677398 -1.03942,-1.411759 -2.24949,-2.621819 -3.63022,-3.630219 -1.38073,-1.008399 -2.90106,-1.791836 -4.56104,-2.350334 -1.65998,-0.558498 -3.37423,-0.837743 -5.14281,-0.837743 z M 32.628905,42.271813 V 59.885068 H 14.013569 V 42.271813 Z m 21.999944,0 V 59.885068 H 36.013512 V 42.271813 Z m 21.999943,0 V 59.885068 H 58.013455 V 42.271813 Z m 21.999943,0 V 59.885068 H 80.013398 V 42.271813 Z m 21.999945,0 V 59.885068 H 102.01334 V 42.271813 Z M 98.628735,21.135906 V 38.749162 H 80.013398 V 21.135906 Z m -21.999943,0 V 38.749162 H 58.013455 V 21.135906 Z m -21.999943,0 V 38.749162 H 36.013512 V 21.135906 Z M 98.628735,0 V 17.613255 H 80.013398 V 0 Z"
       fill="#2396ed"
       id="path2" />
  </g>
</svg>
