<?xml version="1.0" encoding="UTF-8" standalone="no"?>
<svg
   xmlns:dc="http://purl.org/dc/elements/1.1/"
   xmlns:cc="http://creativecommons.org/ns#"
   xmlns:rdf="http://www.w3.org/1999/02/22-rdf-syntax-ns#"
   xmlns:svg="http://www.w3.org/2000/svg"
   xmlns="http://www.w3.org/2000/svg"
   xmlns:sodipodi="http://sodipodi.sourceforge.net/DTD/sodipodi-0.dtd"
   xmlns:inkscape="http://www.inkscape.org/namespaces/inkscape"
   fill="#000000"
   height="525"
   width="800"
   version="1.1"
   id="Capa_1"
   viewBox="0 0 512 336"
   xml:space="preserve"
   sodipodi:docname="gpu_icon.svg"
   inkscape:version="1.0.2-2 (e86c870879, 2021-01-15)"><metadata
   id="metadata31"><rdf:RDF><cc:Work
       rdf:about=""><dc:format>image/svg+xml</dc:format><dc:type
         rdf:resource="http://purl.org/dc/dcmitype/StillImage" /><dc:title></dc:title></cc:Work></rdf:RDF></metadata><defs
   id="defs29" /><sodipodi:namedview
   pagecolor="#ffffff"
   bordercolor="#666666"
   borderopacity="1"
   objecttolerance="10"
   gridtolerance="10"
   guidetolerance="10"
   inkscape:pageopacity="0"
   inkscape:pageshadow="2"
   inkscape:window-width="1022"
   inkscape:window-height="480"
   id="namedview27"
   showgrid="false"
   inkscape:zoom="0.1328125"
   inkscape:cx="779.19477"
   inkscape:cy="25.783109"
   inkscape:window-x="176"
   inkscape:window-y="23"
   inkscape:window-maximized="0"
   inkscape:current-layer="Capa_1" />
<g
   id="g24"
   transform="translate(0,-88)">
	<path
   d="M 480.003,128 H 48 C 48,105.944 30.056,88 8,88 c -4.418,0 -8,3.582 -8,8 0,4.418 3.582,8 8,8 13.234,0 24,10.766 24,24 v 288 c 0,4.418 3.582,8 8,8 4.418,0 8,-3.582 8,-8 v -8 H 64.01 C 77.238,408 88,397.238 88,384.01 V 384 H 480.003 C 497.646,384 512,369.646 512,352.003 V 159.997 C 512,142.354 497.646,128 480.003,128 Z M 496,352.003 C 496,360.824 488.824,368 480.003,368 H 80 c -4.418,0 -8,3.582 -8,8 v 8.01 c 0,4.406 -3.584,7.99 -7.99,7.99 H 48 V 144 h 432.003 c 8.821,0 15.997,7.176 15.997,15.997 z"
   id="path2" />
	<path
   d="m 240,192 c -22.922,0 -43.057,12.12 -54.363,30.28 -0.784,0.849 -1.379,1.856 -1.737,2.954 -5.03,9.136 -7.9,19.621 -7.9,30.766 0,11.406 3.013,22.115 8.264,31.399 0.187,0.398 0.407,0.778 0.656,1.14 C 196.078,307.354 216.586,320 240,320 c 35.29,0 64,-28.71 64,-64 0,-11.406 -3.013,-22.115 -8.264,-31.399 -0.187,-0.398 -0.407,-0.778 -0.656,-1.14 C 283.922,204.646 263.414,192 240,192 Z m -48,64 c 0,-4.395 0.605,-8.648 1.717,-12.695 3.596,3.178 8.453,6.73 15.035,10.53 6.376,3.681 11.742,6.078 16.208,7.612 -2.622,2.061 -5.987,4.385 -10.208,6.821 -8.449,4.878 -14.816,7.039 -18.36,7.752 C 193.58,269.922 192,263.144 192,256 Z m 96,0 c 0,4.103 -0.52,8.087 -1.493,11.891 -3.617,-3.227 -8.542,-6.848 -15.259,-10.726 -5.96,-3.441 -11.036,-5.758 -15.321,-7.298 2.483,-1.885 5.564,-3.966 9.321,-6.135 8.447,-4.876 14.816,-7.039 18.36,-7.752 2.812,6.098 4.392,12.876 4.392,20.02 z m -14.052,-33.901 c -4.562,1.524 -10.087,3.96 -16.699,7.777 -6.252,3.61 -10.952,6.997 -14.49,10.051 C 242.31,236.682 242,232.717 242,228 c 0,-9.763 1.314,-16.361 2.469,-19.785 11.465,1.064 21.775,6.169 29.479,13.884 z M 227.619,209.627 C 226.655,214.344 226,220.354 226,228 c 0,7.056 0.557,12.721 1.401,17.26 -3.022,-1.232 -6.59,-2.938 -10.65,-5.282 -8.302,-4.793 -13.33,-9.159 -15.769,-11.883 6.394,-8.915 15.757,-15.56 26.637,-18.468 z m -21.57,80.271 c 4.564,-1.524 10.086,-3.954 16.702,-7.774 6.252,-3.61 10.952,-6.997 14.49,-10.051 0.449,3.245 0.759,7.21 0.759,11.927 0,9.763 -1.314,16.361 -2.469,19.785 -11.466,-1.064 -21.778,-6.17 -29.482,-13.887 z m 46.332,12.475 C 253.345,297.656 254,291.646 254,284 c 0,-7.633 -0.653,-13.635 -1.614,-18.347 3.066,1.237 6.708,2.97 10.863,5.368 8.764,5.06 13.892,9.652 16.163,12.33 -6.4,9.195 -15.926,16.054 -27.031,19.022 z"
   id="path4" />
	<path
   d="m 440,168 c -4.418,0 -8,3.582 -8,8 0,4.418 3.582,8 8,8 8.822,0 16,7.178 16,16 v 112 c 0,8.822 -7.178,16 -16,16 H 240 c -39.701,0 -72,-32.299 -72,-72 0,-39.701 32.299,-72 72,-72 h 168 c 4.418,0 8,-3.582 8,-8 0,-4.418 -3.582,-8 -8,-8 H 240 c -48.523,0 -88,39.477 -88,88 0,48.523 39.477,88 88,88 h 200 c 17.645,0 32,-14.355 32,-32 V 200 c 0,-17.645 -14.355,-32 -32,-32 z"
   id="path6" />
	<path
   d="M 112,232 H 88 c -8.822,0 -16,7.178 -16,16 v 16 c 0,8.822 7.178,16 16,16 h 24 c 8.822,0 16,-7.178 16,-16 v -16 c 0,-8.822 -7.178,-16 -16,-16 z m -24,32 v -16 h 24 l 0.001,16 z"
   id="path8" />
	<path
   d="M 112,176 H 88 c -8.822,0 -16,7.178 -16,16 v 16 c 0,8.822 7.178,16 16,16 h 24 c 8.822,0 16,-7.178 16,-16 v -16 c 0,-8.822 -7.178,-16 -16,-16 z m -24,32 v -16 h 24 l 0.001,16 z"
   id="path10" />
	<path
   d="M 112,288 H 88 c -8.822,0 -16,7.178 -16,16 v 16 c 0,8.822 7.178,16 16,16 h 24 c 8.822,0 16,-7.178 16,-16 v -16 c 0,-8.822 -7.178,-16 -16,-16 z m -24,32 v -16 h 24 l 0.001,16 z"
   id="path12" />
	<path
   d="m 432,200 h -24 c -4.418,0 -8,3.582 -8,8 0,4.418 3.582,8 8,8 h 24 c 4.418,0 8,-3.582 8,-8 0,-4.418 -3.582,-8 -8,-8 z"
   id="path14" />
	<path
   d="m 432,296 h -24 c -4.418,0 -8,3.582 -8,8 0,4.418 3.582,8 8,8 h 24 c 4.418,0 8,-3.582 8,-8 0,-4.418 -3.582,-8 -8,-8 z"
   id="path16" />
	<path
   d="m 432,224 h -24 c -4.418,0 -8,3.582 -8,8 0,4.418 3.582,8 8,8 h 24 c 4.418,0 8,-3.582 8,-8 0,-4.418 -3.582,-8 -8,-8 z"
   id="path18" />
	<path
   d="m 432,248 h -24 c -4.418,0 -8,3.582 -8,8 0,4.418 3.582,8 8,8 h 24 c 4.418,0 8,-3.582 8,-8 0,-4.418 -3.582,-8 -8,-8 z"
   id="path20" />
	<path
   d="m 432,272 h -24 c -4.418,0 -8,3.582 -8,8 0,4.418 3.582,8 8,8 h 24 c 4.418,0 8,-3.582 8,-8 0,-4.418 -3.582,-8 -8,-8 z"
   id="path22" />
</g>
</svg>
