<?xml version="1.0" encoding="UTF-8" standalone="no"?>
<!-- Created with Inkscape (http://www.inkscape.org/) -->

<svg
   width="135.46666mm"
   height="135.46666mm"
   viewBox="0 0 135.46666 135.46666"
   version="1.1"
   id="svg1064"
   inkscape:version="1.1.2 (1:1.1+202202050950+0a00cf5339)"
   sodipodi:docname="detection_csv_input.svg"
   xmlns:inkscape="http://www.inkscape.org/namespaces/inkscape"
   xmlns:sodipodi="http://sodipodi.sourceforge.net/DTD/sodipodi-0.dtd"
   xmlns="http://www.w3.org/2000/svg"
   xmlns:svg="http://www.w3.org/2000/svg">
  <sodipodi:namedview
     id="namedview1066"
     pagecolor="#ffffff"
     bordercolor="#666666"
     borderopacity="1.0"
     inkscape:pageshadow="2"
     inkscape:pageopacity="0.0"
     inkscape:pagecheckerboard="0"
     inkscape:document-units="mm"
     showgrid="false"
     inkscape:zoom="0.55945567"
     inkscape:cx="296.71699"
     inkscape:cy="416.47625"
     inkscape:window-width="1920"
     inkscape:window-height="1171"
     inkscape:window-x="0"
     inkscape:window-y="0"
     inkscape:window-maximized="1"
     inkscape:current-layer="layer1" />
  <defs
     id="defs1061" />
  <g
     inkscape:label="Layer 1"
     inkscape:groupmode="layer"
     id="layer1"
     transform="translate(-0.1806823,-0.63738525)">
    <rect
       style="fill:#ffffff;fill-opacity:0;stroke-width:1.334"
       id="rect1867"
       width="135.46666"
       height="135.46666"
       x="0.1806823"
       y="0.63738525" />
  </g>
  <g
     inkscape:groupmode="layer"
     id="layer2"
     inkscape:label="Layer 2"
     transform="translate(-0.1806823,-0.63738525)">
    <path
       fill="#000000"
       d="m 4.9363902,5.8464001 q -0.2740552,0 -0.45686,-0.2129117 -0.1826114,-0.2129118 -0.1826114,-0.5193308 0,-0.292794 0.1826114,-0.5059957 0.1828877,-0.2132339 0.45686,-0.2132339 0.2514015,0 0.434013,0.2132339 0.1826114,0.2129118 0.1826114,0.5059957 0,0.3063224 -0.1826114,0.5193308 -0.1826115,0.2129117 -0.434013,0.2129117 z M 5.9300339,11.38594 q -0.7081234,0 -1.0735948,-0.386172 Q 4.4909675,10.600292 4.4909675,9.8412506 V 7.5641892 H 3.0861582 v -0.825621 h 2.284245 v 2.9961613 q 0,0.3994755 0.1599576,0.5859105 0.1712845,0.186499 0.513964,0.186499 0.1942146,0 0.3768813,-0.03994 0.1942145,-0.05315 0.4225755,-0.159764 v 0.865562 q -0.1826115,0.07989 -0.4339853,0.146558 -0.2514015,0.06668 -0.4796796,0.06668 z M 7.9196142,11.29285 V 6.738697 h 0.8794355 v 0.6791274 q 0.4568328,-0.7457066 1.1992127,-0.7457066 0.4111656,0 0.7081236,0.2132339 0.308367,0.1997054 0.479679,0.5726071 0.182612,0.3595342 0.182612,0.8388917 V 11.293012 H 10.477803 V 8.5898377 q 0,-0.5060277 -0.239797,-0.7989828 -0.228472,-0.292794 -0.6167631,-0.292794 -0.2514016,0 -0.4682423,0.1330297 -0.2055412,0.1198232 -0.3540614,0.3595342 v 3.3024192 z m 6.1583418,0.06668 q -0.491117,0 -0.890845,-0.306323 -0.399756,-0.319529 -0.639582,-0.838924 -0.239799,-0.5326338 -0.239799,-1.1984582 0,-0.6524893 0.239799,-1.1718201 0.239798,-0.5326338 0.639582,-0.838924 0.411166,-0.3195288 0.902255,-0.3195288 0.319804,0 0.582478,0.1465581 0.274055,0.1330296 0.491116,0.3994753 v -2.463494 l 0.879436,-0.1729707 v 6.6980574 h -0.856588 v -0.532666 q -0.216869,0.293115 -0.502527,0.45275 -0.274055,0.146559 -0.605325,0.146559 z m 0.205541,-0.85226 q 0.262729,0 0.491118,-0.106617 0.228471,-0.119823 0.388318,-0.346231 V 7.9904315 Q 15.002975,7.7639913 14.774615,7.6442003 14.546143,7.5243769 14.283497,7.5243769 q -0.319777,0 -0.57104,0.1997055 -0.251401,0.1864991 -0.399756,0.5193309 -0.137027,0.3329282 -0.137027,0.7723447 0,0.4394487 0.137027,0.7856802 0.148355,0.3328958 0.399756,0.5192988 0.251125,0.186499 0.57104,0.186499 z m 4.78779,0.878866 q -0.559659,0 -1.027901,-0.306323 -0.45686,-0.319529 -0.730971,-0.852227 -0.262727,-0.5459692 -0.262727,-1.2117935 0,-0.6657922 0.251124,-1.185123 0.251402,-0.532666 0.696686,-0.838924 0.445423,-0.3195288 0.982206,-0.3195288 0.571069,0 1.005081,0.3063224 0.445423,0.3063225 0.696687,0.8389241 0.251125,0.5193308 0.251125,1.1984582 v 0.2528532 h -3.015188 q 0.03426,0.372869 0.205541,0.6658245 0.171285,0.2795879 0.422604,0.4394159 0.262728,0.159765 0.582477,0.159765 0.29693,0 0.559632,-0.13303 0.262727,-0.13303 0.434012,-0.372869 l 0.582451,0.599245 q -0.331188,0.399475 -0.742353,0.58591 -0.399756,0.17297 -0.890846,0.17297 z M 17.929178,8.6163793 h 2.170009 Q 20.053604,8.2834832 19.893646,8.0437722 19.745291,7.7905973 19.516765,7.6575998 q -0.228471,-0.146558 -0.513964,-0.146558 -0.274055,0 -0.502527,0.1330296 -0.217145,0.1330296 -0.365472,0.3861723 -0.148631,0.253175 -0.205541,0.5859101 z m 3.679938,2.6765687 1.519018,-2.3303374 -1.473351,-2.2238169 h 1.039338 l 0.970797,1.5313543 0.993643,-1.5313543 h 0.982207 l -1.473324,2.2371198 1.519018,2.3170345 h -1.027901 l -1.0279,-1.6112688 -1.027901,1.6112688 z m 5.907024,1.504716 0.468269,-2.396917 h 1.027902 l -0.845151,2.396917 z m 5.027643,-1.424834 q -0.411166,0 -0.730943,-0.17297 -0.319805,-0.173294 -0.502526,-0.47939 -0.171285,-0.31953 -0.171285,-0.7324041 0,-0.4128108 0.182611,-0.7057655 0.182888,-0.3063225 0.525374,-0.4660546 0.342652,-0.1597644 0.810894,-0.1597644 0.274055,0 0.536811,0.066676 0.274055,0.066676 0.536784,0.2129118 v -0.452752 q 0,-0.4793898 -0.228471,-0.7190685 -0.228472,-0.2396466 -0.696687,-0.2396466 -0.251401,0 -0.536811,0.093089 -0.28552,0.093089 -0.639582,0.2931161 L 31.298738,7.1651004 q 0.45686,-0.253175 0.868025,-0.3728694 0.411138,-0.1198233 0.810895,-0.1198233 0.776637,0 1.199212,0.4527516 0.422576,0.4394486 0.422576,1.2517345 v 2.9162472 h -0.867998 v -0.47939 q -0.262729,0.292794 -0.559631,0.426113 -0.285548,0.133031 -0.628172,0.133031 z M 31.972742,9.9613313 q 0,0.3195287 0.216869,0.5059957 0.216868,0.186499 0.593887,0.186499 0.274055,0 0.502527,-0.09309 0.239798,-0.106617 0.445423,-0.306322 V 9.5353142 q -0.217145,-0.1066173 -0.445423,-0.1597646 -0.217145,-0.066675 -0.47968,-0.066675 -0.388318,0 -0.616734,0.1864992 -0.216869,0.172971 -0.216869,0.4660542 z M 35.629805,11.292948 37.148823,8.9626106 35.675499,6.7387937 H 36.71481 L 37.685606,8.270148 38.67925,6.7387937 h 0.982206 l -1.473296,2.2371198 1.51899,2.3170345 h -1.0279 l -1.027901,-1.6112688 -1.0279,1.6112688 z M 42.32493,5.8465935 q -0.274055,0 -0.456832,-0.2129119 -0.182611,-0.2132339 -0.182611,-0.5193308 0,-0.2927939 0.182611,-0.5060279 0.182611,-0.2129118 0.456832,-0.2129118 0.251126,0 0.434014,0.2129118 0.182611,0.2129118 0.182611,0.5060279 0,0.3063224 -0.182611,0.5193308 -0.182888,0.2129119 -0.434014,0.2129119 z m 0.993644,5.5395395 q -0.708096,0 -1.073595,-0.386141 -0.365471,-0.399507 -0.365471,-1.1585167 V 7.5643825 h -1.40481 V 6.7387937 h 2.284246 v 2.996129 q 0,0.3995083 0.159957,0.5859103 0.171284,0.186499 0.513936,0.186499 0.194215,0 0.376909,-0.03994 0.194215,-0.05315 0.422576,-0.159765 v 0.865562 q -0.182888,0.07989 -0.434013,0.146559 -0.251402,0.06667 -0.47968,0.06667 z m 3.668501,0 q -0.548222,0 -1.016491,-0.159764 -0.456833,-0.172971 -0.788048,-0.492693 l 0.434014,-0.679128 q 0.399728,0.293117 0.719533,0.412811 0.319777,0.119824 0.639582,0.119824 0.433985,0 0.685248,-0.159765 0.251402,-0.172971 0.251402,-0.4394483 0,-0.1997056 -0.148355,-0.3195292 Q 47.626933,9.5486176 47.398489,9.4954695 47.181344,9.4423205 46.907371,9.4023812 46.633316,9.3492322 46.347741,9.2825583 46.073686,9.2026731 45.845215,9.0696464 45.616743,8.9366167 45.468305,8.6967769 45.331278,8.4571303 45.331278,8.0709257 q 0,-0.4394486 0.205541,-0.7457066 0.205542,-0.3195288 0.571041,-0.4926927 0.376908,-0.1729707 0.845178,-0.1729707 0.456833,0 0.879436,0.146558 0.422575,0.1330297 0.810894,0.4527516 L 48.220793,7.9246575 Q 47.900988,7.6718046 47.581211,7.5651234 47.261406,7.4585063 46.930192,7.4585063 q -0.376882,0 -0.593888,0.1465581 -0.216868,0.1330296 -0.216868,0.3861723 0,0.1997055 0.137027,0.3195288 0.148355,0.106617 0.376881,0.1597644 0.239798,0.053147 0.513964,0.1066169 0.285521,0.039941 0.559631,0.1198233 0.274056,0.066676 0.502527,0.1997055 0.239798,0.1330296 0.376908,0.3861398 0.148355,0.2396465 0.148355,0.639187 0,0.4261136 -0.239798,0.7590416 -0.228472,0.332896 -0.628145,0.519331 -0.388319,0.186499 -0.879435,0.186499 z M 50.335797,9.1490133 V 8.2967861 h 2.706821 v 0.8522272 z m 6.032697,2.2504547 q -0.616763,0 -1.085032,-0.399476 -0.456833,-0.399507 -0.719506,-1.1318783 -0.262728,-0.7324038 -0.262728,-1.7577622 0,-1.0253265 0.262728,-1.7577303 0.262728,-0.7324036 0.719506,-1.1185759 0.468269,-0.3994754 1.085032,-0.3994754 0.605297,0 1.073567,0.3994754 0.46827,0.3861723 0.719533,1.1185759 0.262729,0.7324038 0.262729,1.7577303 0,1.0253584 -0.262729,1.7577622 -0.251125,0.7323713 -0.719533,1.1318783 -0.46827,0.399476 -1.073567,0.399476 z M 55.146406,8.1103515 q 0,0.4394485 0.05719,0.8122858 0.06851,0.3728695 0.171284,0.6524893 L 56.996665,5.9930871 Q 56.722609,5.7134994 56.36852,5.7134994 q -0.365472,0 -0.639583,0.3063224 -0.274054,0.292794 -0.434012,0.838924 -0.148355,0.5326337 -0.148355,1.2517023 z m 1.222088,2.3969155 q 0.365471,0 0.628144,-0.292793 0.274056,-0.2927942 0.422575,-0.8255886 0.159958,-0.5326663 0.159958,-1.2783729 0,-0.4261135 -0.06851,-0.7989507 Q 57.453472,6.9386924 57.3507,6.6457373 l -1.621788,3.5820717 q 0.274056,0.279588 0.639583,0.279588 z m 3.862659,2.290397 0.46827,-2.396917 h 1.0279 l -0.84515,2.396917 z m 5.027643,-1.424834 q -0.411166,0 -0.730971,-0.17297 -0.319777,-0.173294 -0.502526,-0.47939 -0.171285,-0.31953 -0.171285,-0.7324041 0,-0.4128108 0.182612,-0.7057655 0.182611,-0.3063225 0.525374,-0.4660546 0.342651,-0.1597644 0.810921,-0.1597644 0.274056,0 0.536784,0.066676 0.274055,0.066676 0.536783,0.2129118 v -0.452752 q 0,-0.4793898 -0.228471,-0.7190685 -0.228472,-0.2396466 -0.696686,-0.2396466 -0.251125,0 -0.536783,0.093089 Q 64.699,7.7107795 64.344966,7.910807 L 64.013751,7.1651004 q 0.456832,-0.253175 0.867998,-0.3728694 0.411166,-0.1198233 0.810894,-0.1198233 0.776637,0 1.199213,0.4527516 0.422603,0.4394486 0.422603,1.2517345 v 2.9162472 h -0.868026 v -0.47939 q -0.262728,0.292794 -0.55963,0.426113 -0.285521,0.133031 -0.628145,0.133031 z M 64.687728,9.9613313 q 0,0.3195287 0.217144,0.5059957 0.217145,0.186499 0.593888,0.186499 0.274056,0 0.502527,-0.09309 0.239799,-0.106617 0.445422,-0.306322 V 9.5353142 q -0.216868,-0.1066173 -0.445422,-0.1597646 -0.217144,-0.066675 -0.479679,-0.066675 -0.388319,0 -0.616736,0.1864992 -0.217144,0.172971 -0.217144,0.4660542 z m 3.657091,1.3316167 1.519006,-2.3303374 -1.473312,-2.2238169 h 1.039337 l 0.970758,1.5313543 0.993644,-1.5313543 h 0.982234 l -1.473351,2.2371198 1.519017,2.3170345 h -1.0279 l -1.0279,-1.6112688 -1.02789,1.6112688 z m 6.695113,-5.4463545 q -0.274055,0 -0.456859,-0.2129119 -0.182888,-0.2132339 -0.182888,-0.5193308 0,-0.2927939 0.182888,-0.5060279 0.182611,-0.2129118 0.456859,-0.2129118 0.251126,0 0.433986,0.2129118 0.182887,0.2129118 0.182887,0.5060279 0,0.3063224 -0.182887,0.5193308 -0.182612,0.2129119 -0.433986,0.2129119 z m 0.993617,5.5395395 q -0.708096,0 -1.073568,-0.386141 -0.365498,-0.399507 -0.365498,-1.1585167 V 7.5643825 H 73.1897 V 6.7387937 h 2.284218 v 2.996129 q 0,0.3995083 0.159958,0.5859103 0.171284,0.186499 0.513936,0.186499 0.194215,0 0.376909,-0.03994 0.194214,-0.05315 0.422576,-0.159765 v 0.865562 q -0.182612,0.07989 -0.434014,0.146559 -0.251124,0.06667 -0.479679,0.06667 z m 3.668528,0 q -0.548221,0 -1.016464,-0.159764 -0.45686,-0.172971 -0.788074,-0.492693 l 0.434013,-0.679128 q 0.399728,0.293117 0.719533,0.412811 0.319777,0.119824 0.639582,0.119824 0.433985,0 0.685248,-0.159765 0.251402,-0.172971 0.251402,-0.4394483 0,-0.1997056 -0.148631,-0.3195292 Q 80.341659,9.5486176 80.113215,9.4954695 79.89607,9.4423205 79.622097,9.4023812 79.348042,9.3492322 79.062467,9.2825583 78.788412,9.2026731 78.559941,9.0696464 78.331469,8.9366167 78.183031,8.6967769 78.046004,8.4571303 78.046004,8.0709257 q 0,-0.4394486 0.205541,-0.7457066 0.205542,-0.3195288 0.571068,-0.4926927 0.376881,-0.1729707 0.845151,-0.1729707 0.456833,0 0.879436,0.146558 0.422575,0.1330297 0.810894,0.4527516 L 80.935518,7.9246575 Q 80.615714,7.6718046 80.295909,7.5651234 79.976132,7.4585063 79.644917,7.4585063 q -0.376909,0 -0.593887,0.1465581 -0.217145,0.1330296 -0.217145,0.3861723 0,0.1997055 0.137028,0.3195288 0.148354,0.106617 0.376881,0.1597644 0.239798,0.053147 0.513964,0.1066169 0.28552,0.039941 0.559631,0.1198233 0.274055,0.066676 0.502527,0.1997055 0.239797,0.1330296 0.376908,0.3861398 0.148355,0.2396465 0.148355,0.639187 0,0.4261136 -0.239799,0.7590416 -0.228471,0.332896 -0.628144,0.519331 -0.388319,0.186499 -0.879435,0.186499 z M 83.050799,9.1490133 V 8.2967861 h 2.706793 v 0.8522272 z m 4.239566,2.1439347 V 10.440689 H 88.66089 V 5.9797519 L 87.290365,6.6722144 V 5.7800142 l 1.690336,-0.838924 h 0.536784 v 5.4995988 h 1.461909 v 0.852259 z m 5.655793,1.504716 0.468238,-2.396917 h 1.027927 l -0.845176,2.396917 z m 5.027615,-1.424834 q -0.411144,0 -0.730946,-0.17297 -0.319777,-0.173294 -0.502528,-0.47939 -0.171282,-0.31953 -0.171282,-0.7324041 0,-0.4128108 0.182609,-0.7057655 0.18261,-0.3063225 0.525374,-0.4660546 0.342623,-0.1597644 0.810895,-0.1597644 0.27406,0 0.536784,0.066676 0.274052,0.066676 0.536785,0.2129118 v -0.452752 q 0,-0.4793898 -0.228468,-0.7190685 -0.228477,-0.2396466 -0.69669,-0.2396466 -0.251122,0 -0.536785,0.093089 -0.285545,0.093089 -0.639578,0.2931161 L 96.728722,7.1651004 q 0.456836,-0.253175 0.868005,-0.3728694 0.411161,-0.1198233 0.810895,-0.1198233 0.776629,0 1.199209,0.4527516 0.422609,0.4394486 0.422609,1.2517345 v 2.9162472 h -0.868035 v -0.47939 q -0.262724,0.292794 -0.55963,0.426113 -0.285521,0.133031 -0.628169,0.133031 z M 97.402732,9.9613313 q 0,0.3195287 0.217141,0.5059957 0.21715,0.186499 0.593887,0.186499 0.27406,0 0.502528,-0.09309 0.239795,-0.106617 0.445426,-0.306322 V 9.5353142 Q 98.94484,9.4286969 98.716288,9.3755496 q -0.217141,-0.066675 -0.479682,-0.066675 -0.388315,0 -0.616733,0.1864992 -0.217141,0.172971 -0.217141,0.4660542 z m 3.657088,1.3316167 1.51899,-2.3303374 -1.47332,-2.2238169 h 1.03934 l 0.97079,1.5313543 0.99362,-1.5313543 h 0.98223 l -1.47332,2.2371198 1.51899,2.3170345 h -1.0279 l -1.0279,-1.6112688 -1.0279,1.6112688 z m 6.6951,-5.4463545 q -0.27406,0 -0.45684,-0.2129119 -0.18261,-0.2132339 -0.18261,-0.5193308 0,-0.2927939 0.18261,-0.5060279 0.1829,-0.2129118 0.45684,-0.2129118 0.2514,0 0.43401,0.2129118 0.18261,0.2129118 0.18261,0.5060279 0,0.3063224 -0.18261,0.5193308 -0.18261,0.2129119 -0.43401,0.2129119 z m 0.99364,5.5395395 q -0.7081,0 -1.07356,-0.386141 -0.36547,-0.399507 -0.36547,-1.1585167 V 7.5643825 h -1.40482 V 6.7387937 h 2.28422 v 2.996129 q 0,0.3995083 0.15996,0.5859103 0.17128,0.186499 0.51396,0.186499 0.19421,0 0.37688,-0.03994 0.19422,-0.05315 0.42258,-0.159765 v 0.865562 q -0.18262,0.07989 -0.43399,0.146559 -0.2514,0.06667 -0.47971,0.06667 z m 3.66851,0 q -0.54823,0 -1.01647,-0.159764 -0.45686,-0.172971 -0.78807,-0.492693 l 0.43401,-0.679128 q 0.39973,0.293117 0.71953,0.412811 0.31978,0.119824 0.63959,0.119824 0.434,0 0.68527,-0.159765 0.25113,-0.172971 0.25113,-0.4394483 0,-0.1997056 -0.14864,-0.3195292 -0.13703,-0.1198229 -0.36547,-0.172971 -0.21714,-0.053149 -0.49112,-0.093088 -0.27405,-0.053149 -0.55963,-0.1198229 -0.27405,-0.079885 -0.50252,-0.2129119 -0.22847,-0.1330297 -0.37688,-0.3728695 -0.13703,-0.2396466 -0.13703,-0.6258512 0,-0.4394486 0.20554,-0.7457066 0.20554,-0.3195288 0.57107,-0.4926927 0.37688,-0.1729707 0.84515,-0.1729707 0.45686,0 0.87944,0.146558 0.42257,0.1330297 0.81089,0.4527516 l -0.42258,0.6657922 q -0.3198,-0.2528529 -0.63958,-0.3595341 -0.31981,-0.1066171 -0.65102,-0.1066171 -0.37688,0 -0.59389,0.1465581 -0.21714,0.1330296 -0.21714,0.3861723 0,0.1997055 0.13703,0.3195288 0.14835,0.106617 0.3769,0.1597644 0.23981,0.053147 0.51394,0.1066169 0.28552,0.039941 0.55963,0.1198233 0.27406,0.066676 0.50253,0.1997055 0.23979,0.1330296 0.37691,0.3861398 0.14835,0.2396465 0.14835,0.639187 0,0.4261133 -0.2398,0.7590413 -0.22847,0.332896 -0.62817,0.519331 -0.38831,0.186499 -0.87943,0.186499 z m 3.34875,-2.2371197 V 8.2967861 h 2.70679 v 0.8522272 z m 4.18243,2.1439347 v -0.719101 l 2.23855,-2.7164773 q 0.19421,-0.253175 0.30837,-0.4527516 0.11409,-0.1997055 0.15995,-0.3862046 0.0572,-0.1864991 0.0572,-0.3861401 0,-0.3995076 -0.28552,-0.6525215 -0.27405,-0.2663813 -0.70811,-0.2663813 -0.36548,0 -0.69669,0.1729707 -0.33122,0.1597643 -0.71954,0.599213 l -0.47971,-0.6924304 q 0.45683,-0.4793897 0.9251,-0.7191007 0.47971,-0.2396465 0.99365,-0.2396465 0.53678,0 0.93653,0.2264401 0.41117,0.2264403 0.62815,0.6125482 0.22847,0.3861724 0.22847,0.9055032 0,0.3063224 -0.0685,0.5859101 -0.0685,0.2663813 -0.2398,0.5459689 -0.15996,0.2795877 -0.45686,0.6524893 l -1.736,2.0906585 2.60403,-0.01289 v 0.852227 z"
       fill-rule="nonzero"
       id="path9"
       style="stroke-width:0.789268" />
    <path
       fill="#000000"
       d="m 4.9592097,22.307896 q -0.6167347,0 -1.0849769,-0.399475 -0.45686,-0.399509 -0.7195608,-1.131912 -0.2627283,-0.732371 -0.2627283,-1.75773 0,-1.025326 0.2627283,-1.75773 0.2627284,-0.732372 0.7195608,-1.118544 0.4682422,-0.399507 1.0849769,-0.399507 0.6053251,0 1.0735949,0.399507 0.4682698,0.386172 0.7195331,1.118544 0.2627284,0.732404 0.2627284,1.75773 0,1.025359 -0.2627284,1.75773 -0.2511252,0.732403 -0.7195331,1.131912 -0.4682698,0.399475 -1.0735949,0.399475 z M 3.7371775,19.018779 q 0,0.439449 0.057187,0.812318 0.068514,0.372837 0.1712845,0.652457 L 5.5874651,16.901515 Q 5.3134099,16.621927 4.959293,16.621927 q -0.3654716,0 -0.639582,0.306322 -0.2740553,0.293117 -0.4340129,0.838924 -0.1483545,0.532634 -0.1483545,1.251703 z m 1.2220322,2.396917 q 0.3654992,0 0.6281722,-0.292794 0.2740553,-0.292795 0.4225756,-0.825589 0.1599576,-0.532666 0.1599576,-1.278373 0,-0.426114 -0.068514,-0.79895 -0.057187,-0.37287 -0.1599577,-0.665825 l -1.6217882,3.582072 q 0.2740553,0.279587 0.639582,0.279587 z m 4.6735813,0.865561 q -0.2855479,0 -0.479707,-0.212911 -0.1826118,-0.226441 -0.1826118,-0.532634 0,-0.319529 0.1826118,-0.545969 0.1942141,-0.22644 0.479707,-0.22644 0.274055,0 0.456833,0.22644 0.194214,0.22644 0.194214,0.545969 0,0.306322 -0.194214,0.532634 -0.1826121,0.212911 -0.456833,0.212911 z m 4.673581,0.02577 q -0.616735,0 -1.085004,-0.399507 -0.45686,-0.399475 -0.719534,-1.131879 -0.262728,-0.732371 -0.262728,-1.75773 0,-1.025327 0.262728,-1.757731 0.262729,-0.732403 0.719534,-1.118575 0.468269,-0.399476 1.085004,-0.399476 0.605325,0 1.073595,0.399476 0.468243,0.386172 0.719506,1.118575 0.262728,0.732404 0.262728,1.757731 0,1.025359 -0.262728,1.75773 -0.251126,0.732404 -0.719506,1.131879 -0.46827,0.399507 -1.073595,0.399507 z m -1.22206,-3.289116 q 0,0.439448 0.05719,0.812286 0.06851,0.372869 0.171284,0.652489 l 1.621816,-3.58204 q -0.274055,-0.279587 -0.628172,-0.279587 -0.365472,0 -0.639582,0.306322 -0.274055,0.293116 -0.434013,0.838892 -0.148355,0.532666 -0.148355,1.251734 z m 1.22206,2.396916 q 0.365472,0 0.628145,-0.292794 0.274055,-0.292793 0.422603,-0.825621 0.159957,-0.532634 0.159957,-1.27834 0,-0.426113 -0.06851,-0.798983 -0.05719,-0.372838 -0.159957,-0.665792 l -1.621816,3.582039 q 0.274055,0.279588 0.639582,0.279588 z m 3.86266,2.290396 0.46827,-2.396916 h 1.0279 l -0.845178,2.396916 z m 6.158315,-1.504748 V 20.62918 h -2.855286 v -0.812287 l 2.752515,-3.968244 h 0.925103 v 3.928303 h 0.696685 v 0.852228 h -0.696685 v 1.571295 z M 22.4086,19.776948 h 1.918747 v -2.769785 z m 5.918461,2.530075 q -0.593887,0 -1.050719,-0.239646 -0.45686,-0.239647 -0.719533,-0.652489 -0.262729,-0.426113 -0.262729,-0.972083 0,-0.359534 0.148355,-0.665792 0.14863,-0.319529 0.411165,-0.545969 0.274055,-0.239647 0.616762,-0.332928 -0.445422,-0.172971 -0.719533,-0.54597 -0.262727,-0.38614 -0.262727,-0.865529 0,-0.492693 0.239797,-0.8922 0.239799,-0.399475 0.650992,-0.625852 0.422604,-0.22644 0.947949,-0.22644 0.525374,0 0.93654,0.22644 0.422576,0.22644 0.662429,0.625852 0.239799,0.399507 0.239799,0.8922 0,0.479389 -0.274055,0.865529 -0.274056,0.37287 -0.708124,0.54597 0.513964,0.146558 0.833742,0.572607 0.331214,0.426113 0.331214,0.972082 0,0.54597 -0.262728,0.972083 -0.251402,0.41281 -0.719533,0.652489 -0.456861,0.239646 -1.039339,0.239646 z m 0,-3.781809 q 0.285548,0 0.502555,-0.119823 0.228472,-0.133029 0.365471,-0.359534 0.137028,-0.22644 0.137028,-0.505996 0,-0.279588 -0.137028,-0.492725 -0.137027,-0.22644 -0.365471,-0.359534 -0.216868,-0.13303 -0.502555,-0.13303 -0.29693,0 -0.525345,0.13303 -0.217145,0.133029 -0.354062,0.359534 -0.125701,0.212912 -0.125701,0.492725 0,0.279587 0.125701,0.505996 0.137028,0.22644 0.354062,0.359534 0.228471,0.119823 0.525345,0.119823 z m 0,2.956188 q 0.342653,0 0.593916,-0.13303 0.262728,-0.146557 0.411165,-0.399475 0.159958,-0.253174 0.159958,-0.559304 0,-0.319528 -0.159958,-0.559272 -0.148354,-0.252853 -0.411165,-0.386172 -0.251125,-0.146558 -0.593916,-0.146558 -0.342623,0 -0.605297,0.146558 -0.262728,0.13303 -0.422603,0.386172 -0.148354,0.239647 -0.148354,0.559272 0,0.306323 0.148354,0.559304 0.159958,0.252853 0.422603,0.399475 0.262729,0.13303 0.605297,0.13303 z m 4.673582,0.798984 q -0.285521,0 -0.47968,-0.212912 -0.182888,-0.22644 -0.182888,-0.532634 0,-0.319529 0.182888,-0.545969 0.194215,-0.22644 0.47968,-0.22644 0.274055,0 0.45686,0.22644 0.194214,0.22644 0.194214,0.545969 0,0.306322 -0.194214,0.532634 -0.182888,0.212912 -0.45686,0.212912 z m 4.673581,0.02577 q -0.616763,0 -1.085004,-0.399476 -0.45686,-0.399475 -0.719533,-1.131879 -0.262729,-0.732404 -0.262729,-1.75773 0,-1.025358 0.262729,-1.757762 0.262728,-0.732372 0.719533,-1.118544 0.468241,-0.399476 1.085004,-0.399476 0.605325,0 1.073567,0.399476 0.46827,0.386172 0.719533,1.118544 0.262729,0.732404 0.262729,1.757762 0,1.025326 -0.262729,1.75773 -0.251125,0.732404 -0.719533,1.131879 -0.468242,0.399476 -1.073567,0.399476 z m -1.22206,-3.289085 q 0,0.439416 0.05719,0.812286 0.06851,0.372837 0.171284,0.652489 L 38.30245,16.89977 q -0.274056,-0.279588 -0.628172,-0.279588 -0.365472,0 -0.639583,0.306323 -0.274055,0.292794 -0.434012,0.838924 -0.148355,0.532666 -0.148355,1.251734 z m 1.22206,2.396916 q 0.365472,0 0.628144,-0.293115 0.274056,-0.292795 0.422576,-0.82559 0.159957,-0.532633 0.159957,-1.27834 0,-0.426114 -0.06851,-0.798983 -0.05719,-0.372837 -0.159958,-0.665824 l -1.621788,3.582071 q 0.274056,0.279588 0.639582,0.279588 z m 3.862687,2.290364 0.468242,-2.396916 h 1.027901 l -0.845151,2.396916 z m 3.634216,-1.504716 v -0.719069 l 2.238551,-2.716509 q 0.194214,-0.253175 0.308367,-0.452751 0.114098,-0.199706 0.159957,-0.386173 0.05719,-0.186499 0.05719,-0.386172 0,-0.399476 -0.285519,-0.65249 -0.274056,-0.266381 -0.708096,-0.266381 -0.365472,0 -0.696714,0.17297 -0.331187,0.159765 -0.719506,0.599246 L 45.045646,16.69984 q 0.456861,-0.47939 0.92513,-0.719069 0.479679,-0.239647 0.993644,-0.239647 0.536783,0 0.936512,0.22644 0.411166,0.22644 0.628172,0.612549 0.228471,0.38614 0.228471,0.905502 0,0.306323 -0.06851,0.585911 -0.06851,0.266381 -0.239798,0.545937 -0.159957,0.279587 -0.456832,0.652521 l -1.736024,2.090626 2.604021,-0.01289 v 0.852227 z m 6.523813,0.106617 q -0.593888,0 -1.050747,-0.239647 -0.456833,-0.239646 -0.719534,-0.652489 -0.262728,-0.426146 -0.262728,-0.972082 0,-0.359566 0.148355,-0.665825 0.14863,-0.319529 0.411165,-0.545969 0.274055,-0.239646 0.616735,-0.332896 -0.445422,-0.172971 -0.719533,-0.545969 -0.262729,-0.386172 -0.262729,-0.86553 0,-0.492725 0.239799,-0.8922 0.239798,-0.399476 0.651019,-0.625851 0.422575,-0.22644 0.947949,-0.22644 0.525374,0 0.93654,0.22644 0.422576,0.22644 0.662429,0.625851 0.239799,0.399475 0.239799,0.8922 0,0.479358 -0.274056,0.86553 -0.274055,0.37287 -0.708123,0.545969 0.513936,0.146558 0.833741,0.572607 0.331215,0.426114 0.331215,0.972083 0,0.545936 -0.262728,0.972082 -0.251126,0.412778 -0.719506,0.652489 -0.45686,0.239647 -1.039338,0.239647 z m 0,-3.781777 q 0.28552,0 0.502527,-0.119823 0.228472,-0.13303 0.365471,-0.359535 0.137028,-0.22644 0.137028,-0.506028 0,-0.279587 -0.137028,-0.492692 -0.137027,-0.22644 -0.365471,-0.359534 -0.217145,-0.13303 -0.502527,-0.13303 -0.296958,0 -0.525374,0.13303 -0.216868,0.133029 -0.354033,0.359534 -0.125702,0.212912 -0.125702,0.492692 0,0.279588 0.125702,0.506028 0.137027,0.22644 0.354033,0.359535 0.228471,0.119823 0.525374,0.119823 z m 0,2.956188 q 0.342624,0 0.593888,-0.13303 0.262728,-0.146558 0.411165,-0.399507 0.159958,-0.252853 0.159958,-0.559272 0,-0.319529 -0.159958,-0.559272 -0.148354,-0.253175 -0.411165,-0.386172 -0.251402,-0.146558 -0.593888,-0.146558 -0.342625,0 -0.605325,0.146558 -0.262729,0.133029 -0.422575,0.386172 -0.148355,0.239647 -0.148355,0.559272 0,0.306322 0.148355,0.559272 0.159957,0.253175 0.422575,0.399507 0.262729,0.13303 0.605325,0.13303 z m 4.547936,0.825589 q -1.107852,0 -1.918746,-0.865562 l 0.513936,-0.679095 q 0.354062,0.359501 0.685277,0.519298 0.342624,0.159765 0.74238,0.159765 0.354034,0 0.616735,-0.146558 0.262728,-0.159765 0.399728,-0.439449 0.148354,-0.293116 0.148354,-0.652489 0,-0.532634 -0.331186,-0.86553 -0.331215,-0.332928 -0.856589,-0.332928 -0.262728,0 -0.525373,0.07989 -0.262729,0.07989 -0.548222,0.252853 l -0.593887,-0.212912 0.125701,-3.275814 h 3.312145 v 0.852259 h -2.569765 l -0.06851,1.82431 q 0.29693,-0.172971 0.559631,-0.22644 0.274055,-0.06667 0.55963,-0.06667 0.536812,0 0.93654,0.239646 0.411166,0.239647 0.639582,0.679128 0.228472,0.426113 0.228472,0.99872 0,0.639187 -0.262729,1.131879 -0.251125,0.479358 -0.719533,0.759009 -0.45686,0.266382 -1.073595,0.266382 z m 4.799199,-0.02577 q -0.28552,0 -0.479679,-0.212912 -0.182612,-0.22644 -0.182612,-0.532634 0,-0.319528 0.182612,-0.545968 0.194214,-0.226441 0.479679,-0.226441 0.274055,0 0.45686,0.226441 0.194215,0.22644 0.194215,0.545968 0,0.306323 -0.194215,0.532634 -0.182611,0.212912 -0.45686,0.212912 z m 4.673582,0.02577 q -0.616736,0 -1.085006,-0.399475 -0.456859,-0.399476 -0.719533,-1.13188 -0.262728,-0.732403 -0.262728,-1.75773 0,-1.025358 0.262728,-1.757762 0.262729,-0.732372 0.719533,-1.118544 0.46827,-0.399475 1.085006,-0.399475 0.605297,0 1.073566,0.399475 0.46827,0.386172 0.719534,1.118544 0.262728,0.732404 0.262728,1.757762 0,1.025327 -0.262728,1.75773 -0.251402,0.732404 -0.719534,1.13188 -0.468269,0.399475 -1.073566,0.399475 z m -1.222061,-3.289085 q 0,0.439417 0.05719,0.812286 0.06851,0.372837 0.171285,0.652489 l 1.621788,-3.582071 q -0.274055,-0.279588 -0.628144,-0.279588 -0.365472,0 -0.639582,0.306322 -0.274055,0.292794 -0.434013,0.838924 -0.148355,0.532666 -0.148355,1.251735 z m 1.222061,2.396917 q 0.365471,0 0.628144,-0.293116 0.274055,-0.292794 0.422603,-0.825589 0.159957,-0.532634 0.159957,-1.27834 0,-0.426114 -0.06851,-0.798983 -0.05719,-0.372838 -0.159957,-0.665825 l -1.621788,3.582072 q 0.274055,0.279588 0.639582,0.279588 z m 3.862659,2.290364 0.468258,-2.396916 h 1.027901 l -0.845151,2.396916 z m 3.691336,-1.504717 v -0.852226 h 1.370553 v -4.460933 l -1.370553,0.692431 v -0.892168 l 1.690329,-0.838924 h 0.536812 v 5.499599 h 1.461886 v 0.852226 z m 6.341092,0.106618 q -1.107852,0 -1.918774,-0.865563 l 0.513964,-0.679094 q 0.354062,0.359501 0.685276,0.519298 0.342624,0.159764 0.742353,0.159764 0.354062,0 0.616762,-0.146558 0.262729,-0.159764 0.399729,-0.439448 0.148354,-0.293117 0.148354,-0.65249 0,-0.532634 -0.331187,-0.865529 -0.331242,-0.332929 -0.856588,-0.332929 -0.262729,0 -0.525374,0.07988 -0.262728,0.07989 -0.548221,0.252853 l -0.593915,-0.212911 0.1257,-3.275814 h 3.312118 v 0.852259 h -2.569737 l -0.06851,1.82431 q 0.29693,-0.172971 0.55963,-0.226441 0.274056,-0.06668 0.559632,-0.06668 0.536783,0 0.936538,0.239647 0.411139,0.239646 0.639583,0.679127 0.228471,0.426114 0.228471,0.998721 0,0.639186 -0.262728,1.131878 -0.251401,0.479358 -0.719534,0.75901 -0.456859,0.266381 -1.073594,0.266381 z m 4.799169,-0.02577 q -0.285521,0 -0.479674,-0.212912 -0.182615,-0.22644 -0.182615,-0.532634 0,-0.319529 0.182615,-0.545969 0.194212,-0.22644 0.479674,-0.22644 0.27406,0 0.456861,0.22644 0.194211,0.22644 0.194211,0.545969 0,0.306322 -0.194211,0.532634 -0.182609,0.212912 -0.456861,0.212912 z m 4.673582,0.02577 q -0.616733,0 -1.085004,-0.399476 -0.456828,-0.399475 -0.719536,-1.131879 -0.262725,-0.732404 -0.262725,-1.75773 0,-1.025358 0.262725,-1.757762 0.262733,-0.732371 0.719536,-1.118544 0.468271,-0.399476 1.085004,-0.399476 0.605322,0 1.073594,0.399476 0.468271,0.386173 0.719535,1.118544 0.262725,0.732404 0.262725,1.757762 0,1.025326 -0.262725,1.75773 -0.251122,0.732404 -0.719535,1.131879 -0.468272,0.399476 -1.073594,0.399476 z M 87.86144,19.01726 q 0,0.439416 0.05722,0.812286 0.06848,0.372837 0.171282,0.652489 l 1.621814,-3.582072 q -0.274052,-0.279587 -0.628168,-0.279587 -0.365477,0 -0.639587,0.306322 -0.274052,0.292794 -0.434007,0.838925 -0.148361,0.532665 -0.148361,1.251733 z m 1.222055,2.396916 q 0.365469,0 0.628177,-0.293115 0.274051,-0.292795 0.422571,-0.825589 0.159955,-0.532634 0.159955,-1.278341 0,-0.426113 -0.06848,-0.798982 -0.05722,-0.372838 -0.159956,-0.665825 l -1.621788,3.582072 q 0.274051,0.279587 0.639578,0.279587 z"
       fill-rule="nonzero"
       id="path11"
       style="stroke-width:0.789268" />
    <path
       fill="#000000"
       d="m 3.1660818,33.109996 v -0.852227 h 1.3705524 v -4.460936 l -1.3705524,0.692429 v -0.892167 l 1.6903296,-0.838924 h 0.5368112 v 5.499598 h 1.4618858 v 0.852227 z m 6.4666817,0.07988 q -0.2855204,0 -0.4796795,-0.212912 -0.1826118,-0.22644 -0.1826118,-0.532666 0,-0.319529 0.1826118,-0.545969 0.1942141,-0.22644 0.4796795,-0.22644 0.2740549,0 0.4568605,0.22644 0.194214,0.22644 0.194214,0.545969 0,0.306322 -0.194214,0.532666 -0.1828881,0.212912 -0.4568605,0.212912 z m 4.6735815,0.02577 q -0.616735,0 -1.085005,-0.399476 -0.456832,-0.399507 -0.719533,-1.131911 -0.262728,-0.732371 -0.262728,-1.75773 0,-1.025326 0.262728,-1.75773 0.262728,-0.732404 0.719533,-1.118576 0.46827,-0.399476 1.085005,-0.399476 0.605325,0 1.073595,0.399476 0.46827,0.386172 0.719533,1.118576 0.262728,0.732404 0.262728,1.75773 0,1.025359 -0.262728,1.75773 -0.251126,0.732404 -0.719533,1.131911 -0.46827,0.399476 -1.073595,0.399476 z m -1.22206,-3.289117 q 0,0.439448 0.05719,0.812286 0.06851,0.37287 0.171285,0.652489 l 1.621816,-3.58204 q -0.274055,-0.279587 -0.628172,-0.279587 -0.365471,0 -0.639582,0.306323 -0.274055,0.293115 -0.434013,0.838891 -0.148354,0.532666 -0.148354,1.251734 z m 1.22206,2.396916 q 0.365471,0 0.628172,-0.292794 0.274055,-0.292793 0.422575,-0.825589 0.159958,-0.532666 0.159958,-1.278372 0,-0.426113 -0.06851,-0.798983 -0.05719,-0.372837 -0.159958,-0.665792 l -1.621788,3.582071 q 0.274055,0.279589 0.639582,0.279589 z m 3.862687,2.290397 0.468242,-2.396917 h 1.0279 l -0.84515,2.396917 z m 5.381678,-1.398196 q -0.605325,0 -1.130701,-0.253176 -0.513936,-0.253174 -0.879407,-0.705765 l 0.57104,-0.639154 q 0.319805,0.399475 0.639583,0.559272 0.331215,0.159765 0.788075,0.159765 0.354034,0 0.616735,-0.13303 0.274055,-0.13303 0.422575,-0.359567 0.148355,-0.239646 0.148355,-0.559272 0,-0.279587 -0.125701,-0.492692 -0.114098,-0.22644 -0.342624,-0.346232 -0.217145,-0.119823 -0.502527,-0.119823 H 23.082247 V 29.48708 h 0.605324 q 0.399729,0 0.628173,-0.252853 0.239798,-0.253175 0.239798,-0.692462 0,-0.279587 -0.137027,-0.505996 -0.125701,-0.239646 -0.365472,-0.372869 -0.228472,-0.13303 -0.525373,-0.13303 -0.411166,0 -0.719534,0.173293 -0.308368,0.159764 -0.639583,0.58591 l -0.57104,-0.625883 q 0.365471,-0.492693 0.879408,-0.745707 0.513965,-0.266381 1.073595,-0.266381 0.536784,0 0.959387,0.22644 0.422575,0.22644 0.662429,0.639186 0.239798,0.399475 0.239798,0.918806 0,0.506029 -0.28552,0.905504 -0.285548,0.386172 -0.74238,0.545969 0.536784,0.133029 0.867998,0.532634 0.331215,0.386172 0.331215,0.93214 0,0.532667 -0.262729,0.95878 -0.262728,0.412811 -0.719533,0.665793 Q 24.144349,33.216 23.550434,33.216 Z m 3.325876,-0.106617 2.54689,-5.486295 h -3.129368 v -0.865563 h 4.054498 v 0.745707 l -2.466967,5.606151 z m 6.124057,0.07989 q -0.285521,0 -0.47968,-0.212911 -0.182888,-0.226441 -0.182888,-0.532635 0,-0.319528 0.182888,-0.545968 0.194215,-0.22644 0.47968,-0.22644 0.274055,0 0.45686,0.22644 0.194214,0.22644 0.194214,0.545968 0,0.306323 -0.194214,0.532635 -0.182888,0.212911 -0.45686,0.212911 z m 4.673554,0.02577 q -0.616736,0 -1.085005,-0.399475 -0.456832,-0.399475 -0.719534,-1.131879 -0.262728,-0.732404 -0.262728,-1.757762 0,-1.025327 0.262728,-1.757731 0.262729,-0.732371 0.719534,-1.118544 0.468269,-0.399507 1.085005,-0.399507 0.605325,0 1.073594,0.399507 0.46827,0.386173 0.719533,1.118544 0.262729,0.732404 0.262729,1.757731 0,1.025358 -0.262729,1.757762 -0.251125,0.732404 -0.719533,1.131879 -0.468269,0.399475 -1.073594,0.399475 z m -1.222061,-3.289116 q 0,0.439448 0.05719,0.812318 0.06851,0.372836 0.171284,0.652489 l 1.621784,-3.58208 q -0.274055,-0.279587 -0.628144,-0.279587 -0.365499,0 -0.639582,0.306322 -0.274055,0.292794 -0.434013,0.838924 -0.14863,0.532634 -0.14863,1.251702 z m 1.222061,2.396948 q 0.365499,0 0.628171,-0.293116 0.274056,-0.292794 0.422576,-0.825588 0.159957,-0.532635 0.159957,-1.278374 0,-0.426113 -0.06851,-0.79895 -0.05719,-0.372869 -0.159958,-0.665825 l -1.621788,3.582073 q 0.274056,0.279587 0.639582,0.279587 z m 3.862687,2.290364 0.468269,-2.396916 h 1.027901 l -0.845151,2.396916 z m 6.158314,-1.504716 v -1.571327 h -2.855285 v -0.812287 l 2.752486,-3.968211 h 0.925102 v 3.92827 h 0.696714 v 0.852228 h -0.696714 v 1.571327 z m -1.918746,-2.423555 h 1.918746 V 27.91482 Z m 5.735738,-4.021488 q 0.662429,0 1.164957,0.399476 0.513963,0.386172 0.799484,1.091937 0.28552,0.692431 0.28552,1.611269 0,1.038662 -0.319777,1.811007 -0.308368,0.772312 -0.890845,1.211761 -0.571069,0.426113 -1.324859,0.426113 -0.399728,0 -0.788047,-0.146558 -0.388318,-0.146558 -0.662429,-0.399508 l 0.468243,-0.732371 q 0.239798,0.199705 0.491116,0.293116 0.262729,0.09309 0.559631,0.09309 0.513964,0 0.868026,-0.293116 0.365471,-0.306323 0.548193,-0.86553 0.194215,-0.572607 0.205542,-1.384893 -0.274056,0.452751 -0.673839,0.69243 -0.399756,0.239647 -0.822332,0.239647 -0.548221,0 -0.959387,-0.239647 -0.411138,-0.252853 -0.650991,-0.69243 -0.228472,-0.439449 -0.228472,-1.012024 0,-0.599245 0.251402,-1.078634 0.251125,-0.479358 0.685248,-0.745708 0.434014,-0.279587 0.993644,-0.279587 z m 0.03426,3.275782 q 0.388318,0 0.730943,-0.199706 0.342652,-0.212912 0.605325,-0.572607 -0.06851,-0.492692 -0.251126,-0.865562 -0.182611,-0.372837 -0.468269,-0.572575 -0.285521,-0.212911 -0.628145,-0.212911 -0.319805,0 -0.571069,0.159764 -0.239797,0.159764 -0.388318,0.439448 -0.148354,0.279588 -0.148354,0.625852 0,0.346231 0.137027,0.625851 0.148355,0.266381 0.399729,0.426113 0.251402,0.146558 0.582478,0.146558 z m 2.971814,3.169261 v -0.719068 l 2.23855,-2.71651 q 0.194215,-0.253175 0.308368,-0.452752 0.114097,-0.199706 0.159958,-0.386172 0.05719,-0.1865 0.05719,-0.386173 0,-0.399475 -0.285521,-0.652489 -0.274055,-0.266381 -0.708123,-0.266381 -0.365472,0 -0.696686,0.172971 -0.331214,0.159764 -0.719533,0.599212 l -0.47968,-0.69243 q 0.456833,-0.479389 0.925103,-0.719068 0.479707,-0.239647 0.993643,-0.239647 0.536784,0 0.936539,0.22644 0.411139,0.226441 0.628145,0.612548 0.228472,0.386173 0.228472,0.905504 0,0.306322 -0.06851,0.58591 -0.06851,0.266381 -0.239799,0.545969 -0.159957,0.279588 -0.45686,0.652489 l -1.735996,2.090659 2.604022,-0.01289 v 0.852227 z m 6.523813,0.07988 q -0.28552,0 -0.479707,-0.212912 -0.182612,-0.22644 -0.182612,-0.532666 0,-0.319529 0.182612,-0.545969 0.194214,-0.22644 0.479707,-0.22644 0.274055,0 0.456832,0.22644 0.194215,0.22644 0.194215,0.545969 0,0.306322 -0.194215,0.532666 -0.182611,0.212912 -0.456832,0.212912 z m 4.673553,0.02577 q -0.616734,0 -1.085004,-0.399508 -0.456832,-0.399475 -0.719533,-1.131879 -0.262729,-0.732372 -0.262729,-1.75773 0,-1.025359 0.262729,-1.75773 0.262729,-0.732404 0.719533,-1.118576 0.46827,-0.399476 1.085004,-0.399476 0.605326,0 1.073595,0.399476 0.46827,0.386172 0.719534,1.118576 0.262728,0.732371 0.262728,1.75773 0,1.025358 -0.262728,1.75773 -0.251126,0.732404 -0.719534,1.131879 -0.468269,0.399508 -1.073595,0.399508 z m -1.222059,-3.289117 q 0,0.439448 0.05719,0.812286 0.06851,0.372869 0.171284,0.652489 l 1.621789,-3.58204 q -0.274055,-0.279587 -0.628172,-0.279587 -0.365472,0 -0.639582,0.306322 -0.274056,0.292794 -0.433985,0.838925 -0.148355,0.532665 -0.148355,1.251733 z m 1.222059,2.396916 q 0.365472,0 0.628173,-0.293116 0.274055,-0.292793 0.422575,-0.825621 0.159958,-0.532634 0.159958,-1.27834 0,-0.426113 -0.06851,-0.798983 -0.05719,-0.372838 -0.159958,-0.665792 l -1.621815,3.582039 q 0.274055,0.279587 0.639581,0.279587 z m 3.862688,2.290397 0.468258,-2.396917 h 1.027901 l -0.845179,2.396917 z m 3.691336,-1.504749 v -0.852227 h 1.370525 v -4.460937 l -1.370525,0.692431 v -0.892169 l 1.69033,-0.838924 h 0.536783 v 5.499599 h 1.461914 v 0.852227 z m 7.140548,0 V 31.53597 h -2.855284 v -0.812286 l 2.752486,-3.968245 h 0.925103 v 3.928272 h 0.696686 v 0.852259 h -0.696686 v 1.571295 z M 78.491454,30.683704 H 80.4102 V 27.91395 Z m 5.815664,2.530107 q -0.605327,0 -1.130701,-0.252853 -0.513936,-0.253175 -0.879435,-0.705765 l 0.571068,-0.639187 q 0.319805,0.399508 0.639582,0.559304 0.331215,0.159764 0.788076,0.159764 0.354033,0 0.616733,-0.133029 0.27406,-0.13303 0.422579,-0.359535 0.148353,-0.239646 0.148353,-0.559272 0,-0.279587 -0.125699,-0.492692 -0.114104,-0.22644 -0.342656,-0.346232 -0.216866,-0.119822 -0.502528,-0.119822 h -0.673837 v -0.838924 h 0.605324 q 0.399726,0 0.628177,-0.253176 0.239795,-0.252853 0.239795,-0.69243 0,-0.279588 -0.137026,-0.506028 -0.125707,-0.239646 -0.365477,-0.372837 -0.228468,-0.13303 -0.525374,-0.13303 -0.411162,0 -0.71953,0.172971 -0.308367,0.159764 -0.639582,0.58591 l -0.57104,-0.625851 q 0.365472,-0.492693 0.879408,-0.745707 0.513964,-0.266381 1.073599,-0.266381 0.536776,0 0.959355,0.22644 0.422605,0.22644 0.662425,0.639186 0.239804,0.399476 0.239804,0.918807 0,0.505995 -0.285521,0.905503 -0.28552,0.386172 -0.742381,0.545969 0.536784,0.133029 0.867996,0.532634 0.331213,0.386172 0.331213,0.932141 0,0.532634 -0.262725,0.958779 -0.262724,0.412779 -0.719535,0.665793 -0.456861,0.239646 -1.050748,0.239646 z m 4.776377,-0.02577 q -0.285546,0 -0.479682,-0.212912 -0.182609,-0.22644 -0.182609,-0.532666 0,-0.319529 0.182609,-0.545969 0.19422,-0.22644 0.479682,-0.22644 0.27406,0 0.456836,0.22644 0.194212,0.22644 0.194212,0.545969 0,0.306322 -0.194212,0.532666 -0.182618,0.212912 -0.456836,0.212912 z m 4.673557,0.02577 q -0.616741,0 -1.085004,-0.399508 -0.456861,-0.399475 -0.719536,-1.131879 -0.262733,-0.732371 -0.262733,-1.75773 0,-1.025358 0.262733,-1.75773 0.262725,-0.732404 0.719536,-1.118576 0.468263,-0.399476 1.085004,-0.399476 0.605322,0 1.073594,0.399476 0.468272,0.386172 0.719527,1.118576 0.262733,0.732372 0.262733,1.75773 0,1.025359 -0.262733,1.75773 -0.251122,0.732404 -0.719527,1.131879 -0.468272,0.399508 -1.073594,0.399508 z m -1.222063,-3.289117 q 0,0.439448 0.05722,0.812286 0.06848,0.37287 0.17129,0.652489 l 1.621814,-3.58204 q -0.27406,-0.279587 -0.628176,-0.279587 -0.365469,0 -0.639579,0.306323 -0.27406,0.292793 -0.433982,0.838924 -0.148636,0.532666 -0.148636,1.251734 z m 1.222063,2.396916 q 0.365469,0 0.628168,-0.293115 0.27406,-0.292794 0.42258,-0.825622 0.159955,-0.532633 0.159955,-1.27834 0,-0.426113 -0.06848,-0.798983 -0.05722,-0.372837 -0.159955,-0.665792 l -1.621823,3.582039 q 0.27406,0.279588 0.639587,0.279588 z"
       fill-rule="nonzero"
       id="path13"
       style="stroke-width:0.789268" />
    <path
       fill="#000000"
       d="M 3.1090054,44.018649 V 43.299548 L 5.347556,40.583039 q 0.1942146,-0.252853 0.3083674,-0.45272 0.1140975,-0.199705 0.1599576,-0.386204 0.057187,-0.186499 0.057187,-0.386141 0,-0.399507 -0.2855479,-0.652521 -0.2740552,-0.266381 -0.7080957,-0.266381 -0.3654714,0 -0.696686,0.17297 -0.3312146,0.159765 -0.7195332,0.599213 l -0.4796793,-0.69243 q 0.4568324,-0.47939 0.9251023,-0.719101 0.4796795,-0.239646 0.9936436,-0.239646 0.5367836,0 0.9365119,0.22644 0.4111658,0.22644 0.6281722,0.612548 0.2284715,0.386173 0.2284715,0.905504 0,0.306322 -0.068514,0.585909 -0.068514,0.266382 -0.2397983,0.54597 -0.1599576,0.279587 -0.45686,0.652489 l -1.7359963,2.090658 2.6039944,-0.01289 v 0.852227 z m 6.5237856,0.07988 q -0.2855204,0 -0.4796795,-0.213234 -0.1826118,-0.226441 -0.1826118,-0.532634 0,-0.319529 0.1826118,-0.545969 0.1942141,-0.22644 0.4796795,-0.22644 0.274055,0 0.456833,0.22644 0.194214,0.22644 0.194214,0.545969 0,0.306323 -0.194214,0.532634 -0.1826121,0.213234 -0.456833,0.213234 z m 4.673581,0.02577 q -0.616735,0 -1.085004,-0.399476 -0.45686,-0.399475 -0.719534,-1.131879 -0.262728,-0.732404 -0.262728,-1.75773 0,-1.025358 0.262728,-1.757762 0.262729,-0.732371 0.719534,-1.118544 0.468269,-0.399508 1.085004,-0.399508 0.605325,0 1.073595,0.399508 0.46827,0.386173 0.719533,1.118544 0.262729,0.732404 0.262729,1.757762 0,1.025326 -0.262729,1.75773 -0.251401,0.732404 -0.719533,1.131879 -0.46827,0.399476 -1.073595,0.399476 z m -1.22206,-3.289085 q 0,0.439416 0.05719,0.812286 0.06851,0.372837 0.171284,0.65249 l 1.621816,-3.582072 Q 14.660547,38.43833 14.30643,38.43833 q -0.365472,0 -0.639582,0.306323 -0.274055,0.292793 -0.433985,0.838924 -0.148355,0.532633 -0.148355,1.251734 z m 1.22206,2.396916 q 0.365472,0 0.628172,-0.292793 0.274056,-0.293116 0.422576,-0.825621 0.159957,-0.532634 0.159957,-1.278341 0,-0.426145 -0.06851,-0.798983 -0.05719,-0.372869 -0.159957,-0.665824 l -1.621816,3.582072 q 0.274055,0.279587 0.639582,0.279587 z m 3.86266,2.290365 0.46827,-2.396917 h 1.0279 l -0.845151,2.396917 z m 3.691374,-1.504716 v -0.852228 h 1.370526 v -4.460936 l -1.370526,0.69243 v -0.892168 l 1.690331,-0.838924 h 0.536784 v 5.499598 h 1.461914 v 0.852228 z m 6.466683,0.106616 q -0.616735,0 -1.085004,-0.399475 -0.456861,-0.399476 -0.719533,-1.131879 -0.262729,-0.732403 -0.262729,-1.75773 0,-1.025359 0.262729,-1.757763 0.262728,-0.732371 0.719533,-1.118544 0.468269,-0.399507 1.085004,-0.399507 0.605297,0 1.073567,0.399507 0.46827,0.386173 0.719533,1.118544 0.262729,0.732404 0.262729,1.757763 0,1.025327 -0.262729,1.75773 -0.251401,0.732403 -0.719533,1.131879 -0.46827,0.399475 -1.073567,0.399475 z M 27.10503,40.835312 q 0,0.439416 0.05719,0.812286 0.06851,0.372837 0.171285,0.652489 l 1.621788,-3.582072 q -0.274055,-0.279587 -0.628144,-0.279587 -0.365472,0 -0.639582,0.306322 -0.274056,0.292794 -0.434013,0.838924 -0.148354,0.532633 -0.148354,1.251735 z m 1.222059,2.396916 q 0.365472,0 0.628145,-0.292793 0.274055,-0.293117 0.422603,-0.825622 0.159958,-0.532633 0.159958,-1.27834 0,-0.426145 -0.06851,-0.798983 -0.05719,-0.37287 -0.159958,-0.665824 l -1.621788,3.582071 q 0.274055,0.279588 0.639582,0.279588 z m 4.673581,0.86553 q -0.285548,0 -0.479707,-0.212911 -0.182611,-0.226441 -0.182611,-0.532666 0,-0.31953 0.182611,-0.54597 0.194215,-0.22644 0.479707,-0.22644 0.274056,0 0.456833,0.22644 0.194214,0.22644 0.194214,0.54597 0,0.306322 -0.194214,0.532666 -0.182888,0.212911 -0.456833,0.212911 z m 4.673554,0.02577 q -0.616734,0 -1.085004,-0.399475 -0.45686,-0.399508 -0.719533,-1.131879 -0.262729,-0.732404 -0.262729,-1.757762 0,-1.025327 0.262729,-1.75773 0.262728,-0.732404 0.719533,-1.118577 0.46827,-0.399475 1.085004,-0.399475 0.605325,0 1.073595,0.399475 0.46827,0.386173 0.719533,1.118577 0.262729,0.732403 0.262729,1.75773 0,1.025358 -0.262729,1.757762 -0.251126,0.732371 -0.719533,1.131879 -0.46827,0.399475 -1.073595,0.399475 z m -1.22206,-3.289116 q 0,0.439448 0.05719,0.812285 0.06851,0.37287 0.171284,0.65249 l 1.621789,-3.58204 q -0.274056,-0.279588 -0.628173,-0.279588 -0.365471,0 -0.639582,0.306323 -0.274055,0.292794 -0.433985,0.838924 -0.148631,0.532634 -0.148631,1.251702 z m 1.22206,2.396916 q 0.365472,0 0.628172,-0.292794 0.274056,-0.292794 0.422576,-0.825589 0.159958,-0.532666 0.159958,-1.278373 0,-0.426113 -0.06851,-0.79895 -0.05719,-0.372869 -0.159958,-0.665825 l -1.621815,3.582072 q 0.274055,0.279588 0.639582,0.279588 z m 3.862687,2.290396 0.46827,-2.396917 h 1.0279 l -0.845178,2.396917 z m 3.691347,-1.504716 v -0.852257 h 1.370525 V 38.70381 l -1.370525,0.692463 v -0.892201 l 1.69033,-0.838924 h 0.536784 v 5.499599 h 1.461913 v 0.85226 z m 4.616478,0 v -0.719099 l 2.238523,-2.716477 q 0.194214,-0.253175 0.308395,-0.452751 0.114097,-0.199706 0.159957,-0.386205 0.05719,-0.186499 0.05719,-0.38614 0,-0.399508 -0.285519,-0.652522 -0.274056,-0.266381 -0.708124,-0.266381 -0.365472,0 -0.696686,0.173293 -0.331215,0.159764 -0.719533,0.599213 L 49.71909,38.518922 q 0.456833,-0.47939 0.925103,-0.719101 0.479679,-0.239646 0.993643,-0.239646 0.536783,0 0.93654,0.22644 0.411138,0.22644 0.628145,0.612548 0.228471,0.386172 0.228471,0.905503 0,0.306323 -0.06851,0.58591 -0.06851,0.266381 -0.239798,0.545969 -0.159957,0.279588 -0.45686,0.652489 l -1.735996,2.090659 2.603994,-0.01289 v 0.852227 z m 6.695098,0.09309 q -0.662429,0 -1.176394,-0.38614 -0.502526,-0.399508 -0.788047,-1.091937 -0.28552,-0.705767 -0.28552,-1.624573 0,-1.038661 0.308367,-1.811006 0.319778,-0.772345 0.890846,-1.198458 0.582478,-0.439448 1.336268,-0.439448 0.399755,0 0.788074,0.146558 0.388318,0.146557 0.662402,0.399475 l -0.46827,0.732371 q -0.239799,-0.199705 -0.502526,-0.292794 -0.251402,-0.09309 -0.548194,-0.09309 -0.513964,0 -0.879435,0.306322 -0.354062,0.292794 -0.548222,0.865562 -0.182611,0.559272 -0.194214,1.371558 0.274055,-0.452752 0.673866,-0.692431 0.399729,-0.239646 0.822304,-0.239646 0.548221,0 0.959387,0.253175 0.411165,0.239647 0.639582,0.679128 0.239798,0.439448 0.239798,1.012023 0,0.599245 -0.251401,1.078634 -0.251126,0.479391 -0.685249,0.75901 -0.434013,0.266382 -0.993643,0.266382 z m -0.03426,-3.275781 q -0.388318,0 -0.730943,0.212912 -0.342652,0.199705 -0.605324,0.559271 0.06851,0.492693 0.251401,0.865563 0.182611,0.372837 0.46827,0.58591 0.28552,0.199705 0.628172,0.199705 0.319777,0 0.559631,-0.159764 0.251125,-0.159765 0.399728,-0.439417 0.148354,-0.279587 0.148354,-0.625883 0,-0.346199 -0.148354,-0.612548 -0.137028,-0.279587 -0.388318,-0.426113 -0.251126,-0.159765 -0.582478,-0.159765 z m 4.536526,3.262478 q -0.28552,0 -0.479679,-0.212911 -0.182612,-0.226441 -0.182612,-0.532667 0,-0.319528 0.182612,-0.545968 0.194214,-0.22644 0.479679,-0.22644 0.274055,0 0.456861,0.22644 0.194214,0.22644 0.194214,0.545968 0,0.306323 -0.194214,0.532667 -0.182612,0.212911 -0.456861,0.212911 z m 4.673554,0.02577 q -0.616735,0 -1.085005,-0.399507 -0.456832,-0.399475 -0.719533,-1.131879 -0.262728,-0.732372 -0.262728,-1.75773 0,-1.025359 0.262728,-1.757731 0.262729,-0.732403 0.719533,-1.118576 0.46827,-0.399475 1.085005,-0.399475 0.605325,0 1.073595,0.399475 0.46827,0.386173 0.719533,1.118576 0.262728,0.732372 0.262728,1.757731 0,1.025358 -0.262728,1.75773 -0.251401,0.732404 -0.719533,1.131879 -0.46827,0.399507 -1.073595,0.399507 z m -1.22206,-3.289116 q 0,0.439448 0.05719,0.812286 0.06851,0.372869 0.171285,0.652488 l 1.621788,-3.582039 q -0.274055,-0.279587 -0.628144,-0.279587 -0.365499,0 -0.639583,0.306322 -0.274055,0.293116 -0.434012,0.838924 -0.148355,0.532666 -0.148355,1.251735 z m 1.22206,2.396916 q 0.365499,0 0.628172,-0.292794 0.274056,-0.292794 0.422575,-0.825621 0.159958,-0.532634 0.159958,-1.27834 0,-0.426113 -0.06851,-0.798983 -0.05719,-0.372838 -0.159957,-0.665792 l -1.621788,3.582039 q 0.274054,0.279588 0.639582,0.279588 z m 3.862687,2.290396 0.468258,-2.396916 h 1.027902 l -0.845151,2.396916 z m 5.301715,-7.949791 q 0.662429,0 1.164955,0.399508 0.513965,0.38614 0.799485,1.091905 0.285521,0.692463 0.285521,1.611269 0,1.038662 -0.319778,1.811007 -0.308367,0.772344 -0.890846,1.21176 -0.571067,0.426146 -1.324857,0.426146 -0.399729,0 -0.788047,-0.146557 -0.388319,-0.146559 -0.662429,-0.399476 l 0.468241,-0.732404 q 0.239799,0.199706 0.491118,0.292794 0.262728,0.09309 0.55963,0.09309 0.513965,0 0.868026,-0.292794 0.365472,-0.306323 0.548194,-0.865562 0.194214,-0.572607 0.205541,-1.384894 -0.274055,0.452752 -0.673839,0.692463 -0.399756,0.239647 -0.822331,0.239647 -0.548221,0 -0.959387,-0.239647 -0.411138,-0.253174 -0.650992,-0.692463 -0.228471,-0.439415 -0.228471,-1.012023 0,-0.599213 0.251125,-1.078602 0.251125,-0.47939 0.685249,-0.745707 0.434012,-0.279588 0.993643,-0.279588 z m 0.03426,3.275782 q 0.388319,0 0.730944,-0.199706 0.342651,-0.212912 0.605325,-0.572574 -0.06851,-0.492725 -0.251402,-0.865563 -0.182612,-0.37287 -0.46827,-0.572607 -0.28552,-0.212912 -0.628144,-0.212912 -0.319805,0 -0.571068,0.159765 -0.239799,0.159764 -0.388319,0.439448 -0.148355,0.279588 -0.148355,0.625851 0,0.346232 0.137028,0.625884 0.148355,0.266381 0.399728,0.426113 0.251402,0.146558 0.582478,0.146558 z m 4.719276,3.275813 q -0.605325,0 -1.130699,-0.253175 -0.513936,-0.253174 -0.879435,-0.705765 l 0.571068,-0.639186 q 0.319805,0.399507 0.639581,0.559304 0.331215,0.159764 0.788076,0.159764 0.354034,0 0.616734,-0.133029 0.274056,-0.13303 0.422576,-0.359534 0.148354,-0.239648 0.148354,-0.559272 0,-0.279589 -0.1257,-0.492694 -0.114098,-0.22644 -0.342652,-0.34623 -0.216869,-0.119824 -0.502527,-0.119824 h -0.67384 V 40.39399 h 0.605325 q 0.399728,0 0.628172,-0.252853 0.239799,-0.252853 0.239799,-0.69243 0,-0.279588 -0.137028,-0.506028 -0.125701,-0.239647 -0.365471,-0.372837 -0.228472,-0.13303 -0.525374,-0.13303 -0.411166,0 -0.719533,0.17297 -0.308368,0.159765 -0.639582,0.585911 l -0.571041,-0.625851 q 0.365471,-0.492693 0.879408,-0.745707 0.513964,-0.266381 1.073595,-0.266381 0.536783,0 0.959359,0.22644 0.422603,0.22644 0.662429,0.639186 0.239798,0.399475 0.239798,0.918806 0,0.505996 -0.28552,0.905504 -0.28552,0.386172 -0.74238,0.545969 0.536784,0.133029 0.867998,0.532633 0.331214,0.386173 0.331214,0.932141 0,0.532667 -0.262728,0.95878 -0.262728,0.412779 -0.719533,0.665793 -0.45686,0.239646 -1.050747,0.239646 z m 4.776355,-0.02577 q -0.28552,0 -0.479682,-0.212911 -0.182888,-0.226441 -0.182888,-0.532667 0,-0.319528 0.182888,-0.545968 0.194212,-0.22644 0.479682,-0.22644 0.274052,0 0.456828,0.22644 0.194211,0.22644 0.194211,0.545968 0,0.306323 -0.194211,0.532667 -0.182609,0.212911 -0.456828,0.212911 z m 4.673574,0.02577 q -0.616733,0 -1.085004,-0.399507 -0.456853,-0.399475 -0.719528,-1.131879 -0.262733,-0.732372 -0.262733,-1.75773 0,-1.025359 0.262733,-1.757731 0.262725,-0.732403 0.719528,-1.118576 0.468271,-0.399475 1.085004,-0.399475 0.605331,0 1.073569,0.399475 0.468271,0.386173 0.71956,1.118576 0.262733,0.732372 0.262733,1.757731 0,1.025358 -0.262733,1.75773 -0.251397,0.732404 -0.71956,1.131879 -0.468238,0.399507 -1.073569,0.399507 z m -1.222055,-3.289116 q 0,0.439448 0.05722,0.812286 0.06848,0.372869 0.171282,0.652488 l 1.621789,-3.582039 q -0.274052,-0.279587 -0.628168,-0.279587 -0.365477,0 -0.639587,0.306322 -0.274052,0.293116 -0.433982,0.838924 -0.148628,0.532666 -0.148628,1.251735 z m 1.222055,2.396916 q 0.365477,0 0.628177,-0.292794 0.274051,-0.292794 0.422571,-0.825621 0.159963,-0.532634 0.159963,-1.27834 0,-0.426113 -0.06848,-0.798983 -0.05722,-0.372838 -0.159964,-0.665792 l -1.621813,3.582039 q 0.274051,0.279588 0.639578,0.279588 z"
       fill-rule="nonzero"
       id="path15"
       style="stroke-width:0.789268" />
    <path
       fill="#000000"
       d="m 4.8564114,55.033823 q -0.6053251,0 -1.1306989,-0.253176 Q 3.211776,54.527472 2.8463046,54.074882 l 0.5710682,-0.639186 q 0.3197771,0.399507 0.6395819,0.559304 0.331187,0.159764 0.788047,0.159764 0.3540617,0 0.6167347,-0.13303 0.2740553,-0.133029 0.4225755,-0.359534 0.1486308,-0.239646 0.1486308,-0.559272 0,-0.279587 -0.1257007,-0.492692 Q 5.7931444,52.383796 5.5646177,52.264004 5.3474731,52.144181 5.0620909,52.144181 H 4.3882245 v -0.838924 h 0.605325 q 0.399756,0 0.6281722,-0.252853 0.2397984,-0.252853 0.2397984,-0.69243 0,-0.279588 -0.1370276,-0.506028 -0.1257008,-0.239647 -0.3654992,-0.372838 -0.2284714,-0.133029 -0.5253462,-0.133029 -0.4111657,0 -0.7195607,0.172971 -0.3083398,0.159764 -0.639582,0.58591 L 2.9034639,49.481108 q 0.3654714,-0.492692 0.8794355,-0.745706 0.5139365,-0.266381 1.0735673,-0.266381 0.5368112,0 0.9593867,0.22644 0.4225755,0.22644 0.6624291,0.639154 0.2397984,0.399508 0.2397984,0.918838 0,0.505996 -0.2855203,0.905503 -0.2855203,0.386173 -0.7423803,0.54597 0.5368112,0.133029 0.8680258,0.532633 0.3312145,0.386173 0.3312145,0.932142 0,0.532634 -0.2627284,0.958779 -0.2627283,0.412779 -0.7195331,0.665792 -0.4568324,0.239647 -1.0507477,0.239647 z m 4.7763521,-0.02577 q -0.2855204,0 -0.4796795,-0.212912 -0.1826118,-0.22644 -0.1826118,-0.532666 0,-0.319529 0.1826118,-0.545969 0.1942141,-0.226441 0.4796795,-0.226441 0.2740549,0 0.4568605,0.226441 0.194214,0.22644 0.194214,0.545969 0,0.306322 -0.194214,0.532666 -0.1828881,0.212912 -0.4568605,0.212912 z m 4.6735815,0.02577 q -0.616735,0 -1.085005,-0.399509 -0.456832,-0.399474 -0.719533,-1.131878 -0.262728,-0.732372 -0.262728,-1.75773 0,-1.025359 0.262728,-1.75773 0.262728,-0.732404 0.719533,-1.118576 0.46827,-0.399476 1.085005,-0.399476 0.605325,0 1.073595,0.399476 0.46827,0.386172 0.719533,1.118576 0.262728,0.732371 0.262728,1.75773 0,1.025358 -0.262728,1.75773 -0.251126,0.732404 -0.719533,1.131878 -0.46827,0.399509 -1.073595,0.399509 z m -1.22206,-3.289117 q 0,0.439448 0.05719,0.812285 0.06851,0.37287 0.171285,0.65249 l 1.621816,-3.58204 q -0.274055,-0.279587 -0.628172,-0.279587 -0.365471,0 -0.639582,0.306322 -0.274055,0.292794 -0.434013,0.838924 -0.148354,0.532666 -0.148354,1.251734 z m 1.22206,2.396916 q 0.365471,0 0.628172,-0.292794 0.274055,-0.292794 0.422575,-0.825621 0.159958,-0.532634 0.159958,-1.27834 0,-0.426114 -0.06851,-0.798983 -0.05719,-0.372837 -0.159958,-0.665793 l -1.621788,3.58204 q 0.274055,0.279588 0.639582,0.279588 z m 3.862687,2.290397 0.468242,-2.396917 h 1.0279 l -0.84515,2.396917 z m 3.691347,-1.504749 v -0.852227 h 1.370553 v -4.460937 l -1.370553,0.692431 v -0.892169 l 1.690331,-0.838924 h 0.536784 v 5.499599 h 1.461912 v 0.852227 z m 6.637995,0.09309 q -0.662429,0 -1.176366,-0.386172 -0.502526,-0.399475 -0.788047,-1.091906 -0.285548,-0.705765 -0.285548,-1.624604 0,-1.038661 0.308367,-1.811006 0.319806,-0.772345 0.890846,-1.198458 0.582478,-0.439417 1.336268,-0.439417 0.399756,0 0.788074,0.146559 0.388319,0.146558 0.662429,0.399507 l -0.468269,0.732371 Q 29.52633,49.547529 29.263601,49.45444 29.012476,49.36135 28.71538,49.36135 q -0.513936,0 -0.879435,0.306322 -0.354034,0.293117 -0.548194,0.865563 -0.182611,0.559271 -0.194214,1.371557 0.274055,-0.452752 0.673839,-0.692463 0.399728,-0.239646 0.822331,-0.239646 0.548194,0 0.95936,0.252853 0.411165,0.239646 0.639581,0.679128 0.239798,0.439416 0.239798,1.012023 0,0.599245 -0.251401,1.078635 -0.251125,0.479357 -0.685276,0.759009 -0.434013,0.266381 -0.993644,0.266381 z m -0.03426,-3.275782 q -0.388319,0 -0.730943,0.212912 -0.342624,0.199706 -0.605325,0.559305 0.06851,0.492692 0.251401,0.865562 0.182611,0.372837 0.46827,0.58591 0.285548,0.199705 0.628172,0.199705 0.319778,0 0.559631,-0.159764 0.251402,-0.159764 0.399729,-0.439449 0.148354,-0.279587 0.148354,-0.625851 0,-0.346231 -0.148354,-0.612548 -0.137028,-0.279587 -0.388319,-0.426113 -0.251126,-0.159765 -0.582478,-0.159765 z m 4.536553,3.26248 q -0.285548,0 -0.479707,-0.212912 -0.182611,-0.22644 -0.182611,-0.532635 0,-0.319528 0.182611,-0.545968 0.194215,-0.22644 0.479707,-0.22644 0.274056,0 0.456833,0.22644 0.194214,0.22644 0.194214,0.545968 0,0.306323 -0.194214,0.532635 -0.182888,0.212912 -0.456833,0.212912 z m 4.673554,0.02577 q -0.616734,0 -1.085004,-0.399476 -0.45686,-0.399475 -0.719533,-1.131879 -0.262729,-0.732404 -0.262729,-1.75773 0,-1.025359 0.262729,-1.757762 0.262728,-0.732372 0.719533,-1.118544 0.46827,-0.399508 1.085004,-0.399508 0.605298,0 1.073567,0.399508 0.46827,0.386172 0.719533,1.118544 0.262729,0.732403 0.262729,1.757762 0,1.025326 -0.262729,1.75773 -0.251401,0.732404 -0.719533,1.131879 -0.468269,0.399476 -1.073567,0.399476 z m -1.22206,-3.289085 q 0,0.439416 0.05719,0.812286 0.06851,0.372837 0.171284,0.652489 L 38.30245,49.62644 q -0.274056,-0.279587 -0.628172,-0.279587 -0.365472,0 -0.639583,0.306322 -0.274055,0.292794 -0.434012,0.838924 -0.148355,0.532634 -0.148355,1.251734 z m 1.22206,2.396916 q 0.365472,0 0.628144,-0.292794 0.274056,-0.293116 0.422604,-0.825621 0.159958,-0.532634 0.159958,-1.27834 0,-0.426146 -0.06851,-0.798983 -0.05719,-0.37287 -0.159958,-0.665825 l -1.621815,3.582072 q 0.274055,0.279588 0.639582,0.279588 z m 3.862687,2.290365 0.46827,-2.396917 h 1.0279 L 42.1879,56.431024 Z m 5.38165,-1.398196 q -0.605298,0 -1.130671,-0.253176 -0.513965,-0.252853 -0.879436,-0.705733 l 0.571068,-0.639186 q 0.319777,0.399475 0.639582,0.559272 0.331214,0.159764 0.788046,0.159764 0.354062,0 0.616736,-0.13303 0.274055,-0.133029 0.422575,-0.359534 0.148355,-0.239646 0.148355,-0.559304 0,-0.279587 -0.125702,-0.492692 -0.114097,-0.226441 -0.342623,-0.3462 -0.216869,-0.119823 -0.502527,-0.119823 h -0.673839 v -0.838924 h 0.605297 q 0.399756,0 0.628173,-0.253175 0.239798,-0.253175 0.239798,-0.69243 0,-0.279588 -0.137028,-0.506028 -0.1257,-0.239646 -0.365499,-0.372837 -0.228471,-0.13303 -0.525346,-0.13303 -0.411166,0 -0.719533,0.172971 -0.308395,0.159764 -0.639582,0.58591 l -0.571068,-0.625851 q 0.365471,-0.492725 0.879436,-0.745707 0.513936,-0.266382 1.073567,-0.266382 0.536811,0 0.959386,0.22644 0.422576,0.226441 0.662429,0.639187 0.239799,0.399508 0.239799,0.918806 0,0.506028 -0.285548,0.905504 -0.285521,0.386172 -0.742352,0.545968 0.536783,0.13303 0.867997,0.532667 0.331215,0.386172 0.331215,0.932141 0,0.532633 -0.262729,0.958747 -0.262728,0.41281 -0.719533,0.665824 -0.456832,0.239647 -1.050748,0.239647 z m 4.650761,0 q -1.107851,0 -1.918773,-0.865563 l 0.513963,-0.679095 q 0.354062,0.359535 0.685277,0.519298 0.342625,0.159765 0.742352,0.159765 0.354062,0 0.616763,-0.146558 0.262729,-0.159764 0.399729,-0.439449 0.148354,-0.293116 0.148354,-0.652489 0,-0.532634 -0.331187,-0.865562 -0.331214,-0.332896 -0.856588,-0.332896 -0.262729,0 -0.525374,0.07989 -0.262729,0.07988 -0.548221,0.253176 l -0.593887,-0.212912 0.1257,-3.275782 h 3.312146 v 0.85226 h -2.569765 l -0.06851,1.824309 q 0.29693,-0.172971 0.559631,-0.22644 0.274055,-0.06667 0.55963,-0.06667 0.536784,0 0.93654,0.239646 0.411166,0.239647 0.639582,0.679128 0.228472,0.426114 0.228472,0.998721 0,0.639186 -0.262729,1.131878 -0.251402,0.479358 -0.719533,0.75901 -0.45686,0.266381 -1.073595,0.266381 z m 4.61645,-6.551563 q 0.662429,0 1.164955,0.399475 0.513937,0.386172 0.799485,1.091937 0.28552,0.692431 0.28552,1.611269 0,1.038662 -0.319805,1.811007 -0.308367,0.772312 -0.890845,1.211761 -0.57104,0.426114 -1.324831,0.426114 -0.399756,0 -0.788074,-0.146559 -0.388319,-0.146558 -0.662429,-0.399507 l 0.46827,-0.732371 q 0.239798,0.199704 0.491117,0.293115 0.262728,0.09309 0.55963,0.09309 0.513964,0 0.867999,-0.292794 0.365471,-0.306322 0.54822,-0.865562 0.194215,-0.572607 0.205542,-1.384893 -0.274055,0.452751 -0.673839,0.692463 -0.399729,0.239646 -0.822304,0.239646 -0.548221,0 -0.959387,-0.239646 -0.411165,-0.253176 -0.650991,-0.692463 -0.228472,-0.439448 -0.228472,-1.012024 0,-0.599245 0.251126,-1.078635 0.251401,-0.479357 0.685275,-0.745706 0.434014,-0.279588 0.993644,-0.279588 z m 0.03426,3.275781 q 0.388319,0 0.730944,-0.199706 0.342652,-0.212912 0.605325,-0.572607 -0.06851,-0.492692 -0.251126,-0.865562 -0.182611,-0.372837 -0.46827,-0.572575 -0.285519,-0.212911 -0.628144,-0.212911 -0.319805,0 -0.571068,0.159764 -0.239799,0.159764 -0.388318,0.439448 -0.148355,0.279588 -0.148355,0.625852 0,0.346231 0.137027,0.625851 0.148355,0.266381 0.399757,0.426113 0.251124,0.146558 0.582478,0.146558 z m 4.822047,3.249143 q -0.28552,0 -0.479679,-0.212912 -0.182612,-0.22644 -0.182612,-0.532666 0,-0.319528 0.182612,-0.545969 0.194214,-0.22644 0.479679,-0.22644 0.274055,0 0.45686,0.22644 0.194215,0.226441 0.194215,0.545969 0,0.306322 -0.194215,0.532666 -0.182611,0.212912 -0.45686,0.212912 z m 4.673553,0.02577 q -0.616734,0 -1.084977,-0.399476 -0.456859,-0.399507 -0.71956,-1.131878 -0.262729,-0.732404 -0.262729,-1.757763 0,-1.025326 0.262729,-1.75773 0.262728,-0.732403 0.71956,-1.118576 0.468243,-0.399475 1.084977,-0.399475 0.605326,0 1.073595,0.399475 0.46827,0.386173 0.719534,1.118576 0.262728,0.732404 0.262728,1.75773 0,1.025359 -0.262728,1.757763 -0.251402,0.732371 -0.719534,1.131878 -0.468269,0.399476 -1.073595,0.399476 z m -1.222032,-3.289117 q 0,0.439449 0.05719,0.812286 0.06851,0.37287 0.171285,0.65249 l 1.621815,-3.58204 q -0.274055,-0.279588 -0.628171,-0.279588 -0.365472,0 -0.639582,0.306323 -0.274055,0.292794 -0.434013,0.838924 -0.148355,0.532634 -0.148355,1.251702 z m 1.222032,2.396917 q 0.3655,0 0.628173,-0.293116 0.274055,-0.292794 0.422575,-0.825589 0.159958,-0.532666 0.159958,-1.278372 0,-0.426114 -0.06851,-0.798951 -0.05719,-0.37287 -0.159958,-0.665825 l -1.621788,3.582072 q 0.274055,0.279587 0.639582,0.279587 z m 3.862688,2.290396 0.468258,-2.396917 h 1.027901 l -0.845151,2.396917 z m 3.691336,-1.504716 V 54.07317 h 1.370553 v -4.460937 l -1.370553,0.692463 v -0.8922 l 1.690329,-0.838924 h 0.536784 v 5.499598 h 1.461914 v 0.852259 z m 6.341092,0.106616 q -1.10788,0 -1.918774,-0.865561 l 0.513964,-0.679128 q 0.354062,0.359535 0.685248,0.519331 0.342652,0.159765 0.742381,0.159765 0.354062,0 0.616762,-0.146559 0.262729,-0.159764 0.399729,-0.439448 0.148354,-0.293116 0.148354,-0.652489 0,-0.532666 -0.331215,-0.865563 -0.331214,-0.332896 -0.85656,-0.332896 -0.262729,0 -0.525374,0.07989 -0.262728,0.07989 -0.548221,0.253175 l -0.593915,-0.212912 0.1257,-3.275782 h 3.312118 v 0.852228 h -2.569737 l -0.06851,1.824341 q 0.29693,-0.173293 0.55963,-0.226441 0.274056,-0.06667 0.559632,-0.06667 0.536783,0 0.936538,0.239646 0.411139,0.239647 0.639583,0.679127 0.228471,0.426114 0.228471,0.998721 0,0.639154 -0.262728,1.131847 -0.251401,0.47939 -0.719505,0.759042 Q 80.227455,55.0321 79.61072,55.0321 Z m 4.799169,-0.02577 q -0.285521,0 -0.479674,-0.212911 -0.182615,-0.226441 -0.182615,-0.532666 0,-0.319529 0.182615,-0.545969 0.194212,-0.22644 0.479674,-0.22644 0.27406,0 0.456861,0.22644 0.194211,0.22644 0.194211,0.545969 0,0.306322 -0.194211,0.532666 -0.182609,0.212911 -0.456861,0.212911 z m 4.673582,0.02577 q -0.616733,0 -1.085004,-0.399475 -0.456828,-0.399507 -0.719536,-1.131878 -0.262725,-0.732404 -0.262725,-1.757763 0,-1.025327 0.262725,-1.75773 0.262733,-0.732403 0.719536,-1.118576 0.468271,-0.399475 1.085004,-0.399475 0.605322,0 1.073594,0.399475 0.468271,0.386173 0.719535,1.118576 0.262725,0.732403 0.262725,1.75773 0,1.025359 -0.262725,1.757763 -0.251122,0.732371 -0.719535,1.131878 -0.468272,0.399475 -1.073594,0.399475 z M 87.86144,51.742929 q 0,0.439449 0.05722,0.812286 0.06848,0.372869 0.171282,0.652489 l 1.621789,-3.582039 q -0.27406,-0.279588 -0.628177,-0.279588 -0.365469,0 -0.639578,0.306322 -0.274052,0.292795 -0.433982,0.838924 -0.148637,0.532635 -0.148637,1.251703 z m 1.222055,2.396917 q 0.365469,0 0.628177,-0.293117 0.274051,-0.292794 0.422571,-0.825588 0.159955,-0.532666 0.159955,-1.278373 0,-0.426114 -0.06848,-0.798951 -0.05722,-0.372869 -0.159956,-0.665824 l -1.621788,3.582072 q 0.274051,0.279587 0.639578,0.279587 z"
       fill-rule="nonzero"
       id="path17"
       style="stroke-width:0.789268" />
    <path
       fill="#000000"
       d="m 4.9592097,65.915805 q -0.2855202,0 -0.4796795,-0.212912 -0.1826114,-0.22644 -0.1826114,-0.532666 0,-0.319528 0.1826114,-0.545969 0.1942146,-0.22644 0.4796795,-0.22644 0.2740553,0 0.4568601,0.22644 0.1942146,0.226441 0.1942146,0.545969 0,0.306323 -0.1942146,0.532666 -0.1826114,0.212912 -0.4568601,0.212912 z m 9.3471623,0 q -0.285548,0 -0.479679,-0.212912 -0.182612,-0.22644 -0.182612,-0.532666 0,-0.319528 0.182612,-0.545969 0.194214,-0.22644 0.479679,-0.22644 0.274055,0 0.456832,0.22644 0.194215,0.226441 0.194215,0.545969 0,0.306323 -0.194215,0.532666 -0.182611,0.212912 -0.456832,0.212912 z m 9.347136,0 q -0.28552,0 -0.479679,-0.212912 -0.182612,-0.22644 -0.182612,-0.532666 0,-0.319528 0.182612,-0.545969 0.194214,-0.22644 0.479679,-0.22644 0.274055,0 0.45686,0.22644 0.194215,0.226441 0.194215,0.545969 0,0.306323 -0.194215,0.532666 -0.182611,0.212912 -0.45686,0.212912 z"
       fill-rule="nonzero"
       id="path19"
       style="stroke-width:0.789268" />
  </g>
</svg>
