<?xml version="1.0" encoding="UTF-8" standalone="no"?>
<svg
   width="800"
   height="800"
   fill="#000000"
   version="1.1"
   viewBox="0 0 56 56"
   id="svg6"
   sodipodi:docname="info_clicked.svg"
   inkscape:export-filename="info_clicked.png"
   inkscape:export-xdpi="11.24"
   inkscape:export-ydpi="11.24"
   inkscape:version="1.2.2 (b0a8486541, 2022-12-01)"
   xmlns:inkscape="http://www.inkscape.org/namespaces/inkscape"
   xmlns:sodipodi="http://sodipodi.sourceforge.net/DTD/sodipodi-0.dtd"
   xmlns="http://www.w3.org/2000/svg"
   xmlns:svg="http://www.w3.org/2000/svg"
   xmlns:rdf="http://www.w3.org/1999/02/22-rdf-syntax-ns#"
   xmlns:cc="http://creativecommons.org/ns#"
   xmlns:dc="http://purl.org/dc/elements/1.1/">
  <defs
     id="defs10" />
  <sodipodi:namedview
     id="namedview8"
     pagecolor="#ffffff"
     bordercolor="#666666"
     borderopacity="1.0"
     inkscape:showpageshadow="2"
     inkscape:pageopacity="0.0"
     inkscape:pagecheckerboard="0"
     inkscape:deskcolor="#d1d1d1"
     showgrid="false"
     inkscape:zoom="0.295"
     inkscape:cx="6.779661"
     inkscape:cy="401.69492"
     inkscape:window-width="1854"
     inkscape:window-height="1131"
     inkscape:window-x="1986"
     inkscape:window-y="32"
     inkscape:window-maximized="1"
     inkscape:current-layer="svg6" />
  <metadata
     id="metadata2">
    <rdf:RDF>
      <cc:Work
         rdf:about="">
        <dc:format>image/svg+xml</dc:format>
        <dc:type
           rdf:resource="http://purl.org/dc/dcmitype/StillImage" />
      </cc:Work>
    </rdf:RDF>
  </metadata>
  <path
     d="m28.573 52.479c13.055 0 23.906-10.828 23.906-23.906 0-13.055-10.875-23.906-23.93-23.906-13.078 0-23.883 10.852-23.883 23.906 0 13.078 10.828 23.906 23.906 23.906zm-0.2109-32.25c-1.711 0-3.0469-1.3595-3.0469-3.0469 0-1.711 1.3359-3.0704 3.0469-3.0704 1.7109 0 3.0468 1.3594 3.0468 3.0704 0 1.6874-1.3359 3.0469-3.0468 3.0469zm-3.9141 21.234c-0.9375 0-1.6875-0.6797-1.6875-1.6406 0-0.9141 0.75-1.6406 1.6875-1.6406h2.9297v-10.758h-2.5313c-0.9375 0-1.6875-0.6797-1.6875-1.6407 0-0.9141 0.75-1.6406 1.6875-1.6406h4.4297c1.1719 0 1.8282 0.8438 1.8282 2.1094v11.93h2.9062c0.9609 0 1.7109 0.7265 1.7109 1.6406 0 0.9609-0.75 1.6406-1.7109 1.6406z"
     fill="#0048ac"
     id="path4" />
</svg>
