<?xml version="1.0" encoding="UTF-8" standalone="no"?>
<svg
   fill="#000000"
   width="800"
   height="800"
   viewBox="0 0 56 56"
   version="1.1"
   id="svg4"
   sodipodi:docname="info.svg"
   inkscape:version="1.1.2 (0a00cf5339, 2022-02-04)"
   inkscape:export-filename="/home/dfranco/Documents/0.thesis/BiaPy-GUI-arg4/images/bn_images/info.png"
   inkscape:export-xdpi="9.6000004"
   inkscape:export-ydpi="9.6000004"
   xmlns:inkscape="http://www.inkscape.org/namespaces/inkscape"
   xmlns:sodipodi="http://sodipodi.sourceforge.net/DTD/sodipodi-0.dtd"
   xmlns="http://www.w3.org/2000/svg"
   xmlns:svg="http://www.w3.org/2000/svg"
   xmlns:rdf="http://www.w3.org/1999/02/22-rdf-syntax-ns#"
   xmlns:cc="http://creativecommons.org/ns#"
   xmlns:dc="http://purl.org/dc/elements/1.1/">
  <metadata
     id="metadata10">
    <rdf:RDF>
      <cc:Work
         rdf:about="">
        <dc:format>image/svg+xml</dc:format>
        <dc:type
           rdf:resource="http://purl.org/dc/dcmitype/StillImage" />
      </cc:Work>
    </rdf:RDF>
  </metadata>
  <defs
     id="defs8" />
  <sodipodi:namedview
     pagecolor="#ffffff"
     bordercolor="#666666"
     borderopacity="1"
     objecttolerance="10"
     gridtolerance="10"
     guidetolerance="10"
     inkscape:pageopacity="0"
     inkscape:pageshadow="2"
     inkscape:window-width="1846"
     inkscape:window-height="1136"
     id="namedview6"
     showgrid="false"
     inkscape:zoom="0.53125"
     inkscape:cx="223.05882"
     inkscape:cy="364.23529"
     inkscape:window-x="0"
     inkscape:window-y="0"
     inkscape:window-maximized="1"
     inkscape:current-layer="svg4"
     inkscape:document-rotation="0"
     inkscape:pagecheckerboard="0" />
  <path
     d="m 28.57289,52.47929 c 13.0547,0 23.9064,-10.8282 23.9064,-23.9063 0,-13.0547 -10.8751,-23.9063 -23.9298,-23.9063 -13.0782,0 -23.8828,10.8516 -23.8828,23.9063 0,13.0781 10.8281,23.9063 23.9062,23.9063 z m -0.2109,-32.25 c -1.711,0 -3.0469,-1.3595 -3.0469,-3.0469 0,-1.711 1.3359,-3.0704 3.0469,-3.0704 1.7109,0 3.0468,1.3594 3.0468,3.0704 0,1.6874 -1.3359,3.0469 -3.0468,3.0469 z m -3.9141,21.2343 c -0.9375,0 -1.6875,-0.6797 -1.6875,-1.6406 0,-0.9141 0.75,-1.6406 1.6875,-1.6406 h 2.9297 v -10.7578 h -2.5313 c -0.9375,0 -1.6875,-0.6797 -1.6875,-1.6407 0,-0.9141 0.75,-1.6406 1.6875,-1.6406 h 4.4297 c 1.1719,0 1.8282,0.8438 1.8282,2.1094 v 11.9297 h 2.9062 c 0.9609,0 1.7109,0.7265 1.7109,1.6406 0,0.9609 -0.75,1.6406 -1.7109,1.6406 z"
     id="path2"
     style="fill:#4090ff;fill-opacity:1" />
</svg>
