<?xml version="1.0" encoding="UTF-8" standalone="no"?>
<svg
   width="126mm"
   height="23mm"
   viewBox="0 0 126 23"
   version="1.1"
   id="svg5"
   inkscape:version="1.1.2 (0a00cf5339, 2022-02-04)"
   sodipodi:docname="wizard.svg"
   inkscape:export-filename="/home/dfranco/Documents/0.thesis/BiaPy-GUI-arg4/images/bn_images/wizard.png"
   inkscape:export-xdpi="51.90435"
   inkscape:export-ydpi="51.90435"
   xml:space="preserve"
   xmlns:inkscape="http://www.inkscape.org/namespaces/inkscape"
   xmlns:sodipodi="http://sodipodi.sourceforge.net/DTD/sodipodi-0.dtd"
   xmlns="http://www.w3.org/2000/svg"
   xmlns:svg="http://www.w3.org/2000/svg"
   xmlns:rdf="http://www.w3.org/1999/02/22-rdf-syntax-ns#"
   xmlns:cc="http://creativecommons.org/ns#"
   xmlns:dc="http://purl.org/dc/elements/1.1/"><metadata
     id="metadata10"><rdf:RDF><cc:Work
         rdf:about=""><dc:format>image/svg+xml</dc:format><dc:type
           rdf:resource="http://purl.org/dc/dcmitype/StillImage" /></cc:Work></rdf:RDF></metadata><sodipodi:namedview
     id="namedview7"
     pagecolor="#ffffff"
     bordercolor="#666666"
     borderopacity="1.0"
     inkscape:pageshadow="2"
     inkscape:pageopacity="0.0"
     inkscape:pagecheckerboard="0"
     inkscape:document-units="mm"
     showgrid="false"
     inkscape:zoom="1.4142136"
     inkscape:cx="111.72287"
     inkscape:cy="105.00535"
     inkscape:window-width="1850"
     inkscape:window-height="1136"
     inkscape:window-x="1990"
     inkscape:window-y="27"
     inkscape:window-maximized="1"
     inkscape:current-layer="layer1"
     inkscape:document-rotation="0"
     inkscape:showpageshadow="2"
     inkscape:deskcolor="#d1d1d1" /><defs
     id="defs2"><rect
       x="143.78255"
       y="43.349037"
       width="302.91681"
       height="98.809967"
       id="rect4478" /></defs><g
     inkscape:label="Layer 1"
     inkscape:groupmode="layer"
     id="layer1"
     transform="translate(-7.0888724,-5.4919925)"><text
       xml:space="preserve"
       transform="matrix(0.26458333,0,0,0.26458333,-2.4639538,0.71066731)"
       id="text4476"
       style="font-style:normal;font-weight:normal;font-size:32px;line-height:1.25;font-family:sans-serif;white-space:pre;shape-inside:url(#rect4478);fill:#000000;fill-opacity:1;stroke:none"
       inkscape:export-filename="/home/dfranco/Documents/0.thesis/BiaPy_GUI/Minimalistic-Flat-Modern-GUI-Template/icons/1x/new/text4476.png"
       inkscape:export-xdpi="44.358955"
       inkscape:export-ydpi="44.358955"><tspan
         x="143.7832"
         y="71.662109"
         id="tspan8632"><tspan
           style="font-family:'DejaVu Serif';-inkscape-font-specification:'DejaVu Serif'"
           id="tspan8630">Wizard</tspan></tspan></text><g
       id="System / Data"
       transform="matrix(8.8194444,0,0,8.8194444,-119.39815,-99.308656)" /><path
       style="fill:#000000;stroke-width:0.581668"
       d="m 11.295359,25.161577 c -0.125724,-0.03876 -0.274648,-0.164203 -0.338261,-0.284935 -0.06465,-0.122701 -0.06901,-0.384503 -0.0086,-0.514303 0.02901,-0.0623 1.387177,-1.434077 4.540422,-4.585918 2.474466,-2.473364 4.495932,-4.498993 4.492146,-4.501396 -0.0038,-0.0024 -0.226892,-0.0721 -0.495793,-0.154877 -1.143042,-0.351878 -1.108902,-0.339433 -1.230089,-0.448391 -0.07162,-0.06439 -0.125507,-0.137355 -0.151358,-0.204932 -0.07981,-0.208643 -0.02975,-0.468582 0.118712,-0.616324 0.03671,-0.03653 0.48435,-0.361415 0.99476,-0.721965 l 0.928017,-0.655544 -0.01631,-1.17907 -0.01631,-1.179071 0.04855,-0.109918 c 0.130359,-0.2951207 0.457538,-0.4406547 0.738193,-0.3283587 0.05104,0.02042 0.506354,0.3454347 1.011821,0.7222547 0.505468,0.376821 0.93112,0.685129 0.945895,0.685129 0.01477,0 0.502199,-0.161687 1.083168,-0.359303 0.70839,-0.24096 1.097673,-0.362562 1.181901,-0.369197 0.337224,-0.02656 0.618919,0.233498 0.618868,0.57134 -1.2e-5,0.07272 -0.106517,0.417105 -0.37463,1.211367 l -0.374613,1.109765 0.692092,0.923661 c 0.380651,0.508013 0.706741,0.958662 0.724645,1.001442 0.0185,0.0442 0.03218,0.144958 0.03168,0.233344 -0.001,0.183037 -0.05122,0.297782 -0.179547,0.410458 -0.171822,0.150861 -0.114473,0.145123 -1.45031,0.145123 h -1.208485 l -0.651333,0.922264 c -0.358233,0.507245 -0.693053,0.959599 -0.744045,1.005231 -0.107141,0.09588 -0.202801,0.127856 -0.383002,0.12803 -0.204676,1.98e-4 -0.370665,-0.09547 -0.481788,-0.277666 -0.02237,-0.03667 -0.147691,-0.411686 -0.278505,-0.833372 -0.130813,-0.421686 -0.243159,-0.775347 -0.249657,-0.785913 -0.0065,-0.01056 -2.043111,2.011257 -4.525805,4.49294 -4.429686,4.427882 -4.516243,4.512804 -4.634694,4.547194 -0.144676,0.042 -0.223818,0.04221 -0.357775,9.31e-4 z M 22.464362,15.56194 c 0.216053,-0.30557 0.41817,-0.582679 0.449148,-0.615798 0.03098,-0.03312 0.102342,-0.08297 0.158587,-0.110784 0.101398,-0.05014 0.108726,-0.0505 0.867816,-0.04302 l 0.765554,0.0075 -0.05642,-0.07455 c -0.547589,-0.723513 -0.823024,-1.109474 -0.851593,-1.193319 -0.06028,-0.176908 -0.04574,-0.247534 0.199391,-0.968241 0.128464,-0.377704 0.229468,-0.690837 0.224453,-0.695852 -0.005,-0.005 -0.325875,0.09784 -0.713022,0.228575 -0.659627,0.222743 -0.711607,0.236788 -0.826393,0.223297 -0.06737,-0.0079 -0.1502,-0.02872 -0.184067,-0.04624 -0.04665,-0.02412 -1.007671,-0.729917 -1.17395,-0.862173 -0.02266,-0.01802 -0.02791,0.127269 -0.02677,0.741142 l 0.0014,0.763561 -0.06234,0.122873 c -0.059,0.116301 -0.09263,0.144562 -0.628812,0.528429 -0.311563,0.223057 -0.586479,0.419473 -0.610924,0.43648 -0.02445,0.01701 -0.03926,0.03637 -0.03291,0.04304 0.0063,0.0067 0.289833,0.09772 0.629973,0.202357 0.682372,0.209911 0.795385,0.253368 0.888374,0.341604 0.110345,0.104707 0.124154,0.14237 0.480831,1.311371 0.03846,0.126048 0.07868,0.226053 0.08938,0.222232 0.0107,-0.0038 0.196226,-0.256958 0.412278,-0.562527 z m 0.247856,6.497125 c -0.04294,-0.07771 -0.127432,-0.231285 -0.187754,-0.34129 l -0.109676,-0.200009 -0.324643,-0.177787 c -0.178554,-0.09778 -0.329754,-0.183207 -0.336,-0.189834 -0.0062,-0.0066 0.105736,-0.07584 0.248852,-0.15381 0.435176,-0.23708 0.402439,-0.206035 0.596874,-0.566024 0.09596,-0.177663 0.180881,-0.32318 0.188717,-0.323372 0.0078,-1.92e-4 0.09582,0.149138 0.19551,0.331843 l 0.181262,0.33219 0.332292,0.180676 c 0.182761,0.09937 0.332003,0.187397 0.33165,0.195612 -3.53e-4,0.0082 -0.14991,0.09454 -0.33235,0.191837 l -0.331708,0.176903 -0.13888,0.25645 c -0.07638,0.141048 -0.160748,0.295026 -0.187474,0.342173 l -0.04859,0.08572 z m 3.236279,-3.039781 0.134884,-0.465057 -0.134297,-0.457207 c -0.07386,-0.251465 -0.12742,-0.457208 -0.119015,-0.457208 0.0084,0 0.216362,0.05916 0.462125,0.131464 l 0.446842,0.131465 0.448416,-0.132292 c 0.246629,-0.07276 0.453514,-0.127196 0.459744,-0.120966 0.0062,0.0062 -0.04516,0.204112 -0.114201,0.439737 -0.06904,0.235626 -0.125434,0.446855 -0.12532,0.469401 1.16e-4,0.02255 0.05688,0.235052 0.126146,0.472239 0.06926,0.237186 0.121419,0.435765 0.115899,0.441285 -0.0055,0.0055 -0.212383,-0.04988 -0.459694,-0.12311 l -0.449656,-0.133146 -0.455367,0.134225 c -0.250451,0.07382 -0.458972,0.134227 -0.463378,0.134227 -0.0044,0 0.05269,-0.209276 0.126872,-0.465057 z m 1.308509,-6.007811 -0.113849,-0.205215 -0.189741,-0.100004 c -0.104359,-0.055 -0.189802,-0.106782 -0.189874,-0.115065 -7.2e-5,-0.0083 0.08775,-0.06201 0.195149,-0.119406 l 0.19528,-0.104345 0.106252,-0.197649 c 0.05844,-0.108707 0.113068,-0.193311 0.1214,-0.188009 0.0083,0.0053 0.05996,0.09443 0.114737,0.198068 l 0.09959,0.188428 0.208327,0.110646 0.208328,0.110646 -0.20791,0.112937 c -0.203733,0.110668 -0.209655,0.116193 -0.294792,0.275019 -0.144323,0.269243 -0.123881,0.266499 -0.252894,0.03395 z M 15.879997,11.08939 15.652624,10.672828 15.241175,10.450595 c -0.226297,-0.122227 -0.411493,-0.227367 -0.411545,-0.233644 -5.3e-5,-0.0063 0.172412,-0.105405 0.383255,-0.2202847 0.210843,-0.11488 0.400869,-0.223816 0.422281,-0.24208 0.02141,-0.01826 0.136131,-0.211649 0.254932,-0.4297444 0.118801,-0.2180958 0.221542,-0.3965375 0.228313,-0.3965375 0.0068,0 0.110821,0.1802234 0.231221,0.400497 0.131506,0.2405909 0.242194,0.4166089 0.277226,0.4408499 0.03207,0.0222 0.220824,0.129241 0.419443,0.2378817 0.198621,0.108641 0.361128,0.203066 0.361128,0.209833 0,0.0068 -0.185075,0.112015 -0.411278,0.233883 l -0.41128,0.221579 -0.226772,0.416686 c -0.124725,0.229177 -0.232163,0.41663 -0.238751,0.416562 -0.0066,-6.8e-5 -0.114296,-0.187577 -0.239351,-0.416686 z M 23.129912,9.1922996 22.952126,8.8608001 22.624056,8.6808611 C 22.443618,8.5818941 22.291509,8.4936769 22.286036,8.484821 22.280536,8.475961 22.427094,8.3846176 22.611661,8.2818264 L 22.947238,8.094933 23.127125,7.7671399 c 0.09894,-0.1802857 0.185041,-0.3276832 0.191341,-0.3275506 0.0063,1.332e-4 0.09211,0.1476401 0.190697,0.3277931 l 0.179242,0.3275506 0.338425,0.188482 c 0.30275,0.1686133 0.334221,0.1915723 0.298557,0.2178003 -0.02193,0.016124 -0.172785,0.1013161 -0.335242,0.1893131 l -0.295373,0.1599942 -0.17944,0.32807 c -0.09869,0.180438 -0.185784,0.3319257 -0.193537,0.3366387 -0.0078,0.0047 -0.0941,-0.1406067 -0.191883,-0.3229317 z"
       id="path1" /></g></svg>
